<svg xmlns="http://www.w3.org/2000/svg" width="99" height="103" viewBox="0 0 99 103" fill="none"><mask id="mask0_184_16" style="mask-type:luminance" maskUnits="userSpaceOnUse" x="6" y="0" width="87" height="72"><path d="M6.96289 0H92.0198V71.2538H6.96289V0Z" fill="white"></path></mask><g mask="url(#mask0_184_16)"><path d="M44.6158 39.6559C47.7993 43.0549 49.391 47.2911 49.391 52.3647C49.391 58.1844 47.3267 62.9761 43.1982 66.7398C42.5682 67.3699 41.9381 67.9004 41.3081 68.3315C42.6345 66.0103 43.2977 63.4155 43.2977 60.5471C43.2977 56.5346 42.1039 53.2435 39.7164 50.6735C39.4013 50.4248 38.9951 50.0766 38.4977 49.6289C38.0003 49.1979 37.2293 48.6507 36.1848 47.9875C35.1568 47.3243 33.8138 46.5284 32.1557 45.5999C30.4977 44.6549 28.4086 43.4942 25.8884 42.1181C18.1951 38.1056 13.0635 34.1264 10.4936 30.1803C8.17234 26.8642 7.01172 22.7855 7.01172 17.944C7.01172 13.2518 8.38788 9.30568 11.1402 6.10568C11.0076 6.60309 10.9164 7.13366 10.8666 7.69739C10.8003 8.26112 10.7672 8.82485 10.7672 9.38858C10.7672 13.401 12.2677 16.916 15.2687 19.9336C16.5288 21.1772 18.3195 22.6031 20.6407 24.2114C22.962 25.8031 25.8718 27.5689 29.3703 29.5088C34.1951 32.2113 37.7433 34.3585 40.0148 35.9502C42.2531 37.5585 43.7868 38.7937 44.6158 39.6559ZM7.01172 62.1388C7.9568 63.83 9.03451 65.4383 10.2449 66.9636C11.4718 68.5056 12.8977 69.9067 14.5226 71.1668H7.01172V62.1388ZM103.957 63.1585V5.45905C103.957 4.94506 103.99 4.17407 104.056 3.14609C104.123 2.11812 104.404 1.06527 104.902 -0.0124512H93.0635L74.5598 54.6777L72.5702 49.7284C70.3816 44.2072 68.0189 37.9398 65.4821 30.9264C62.9454 23.9129 60.2345 16.1119 57.3495 7.52329C56.7858 5.94817 56.363 4.7378 56.0811 3.89221C55.7992 3.04661 55.592 2.42485 55.4594 2.02692C55.3433 1.61242 55.2687 1.33055 55.2355 1.18133C55.2024 1.01553 55.1858 0.841433 55.1858 0.65905C55.1858 0.344024 55.2189 0.120191 55.2853 -0.0124512H39.2936C40.9184 1.24765 42.3443 2.6404 43.5713 4.16578C44.7982 5.70775 45.8842 7.29117 46.8293 8.91604C47.3267 10.4248 47.8573 11.8839 48.421 13.2932C48.9847 14.7026 49.5153 16.0953 50.0127 17.4715C51.7702 21.7989 53.279 25.6041 54.5391 28.887C55.7827 32.1865 56.8438 34.9305 57.7226 37.1191C59.5961 42.1927 61.3039 46.7357 62.8459 50.7481C64.3878 54.7606 65.7225 58.3004 66.85 61.3678C67.0324 61.8818 67.2977 62.5865 67.6459 63.4818C67.9941 64.3937 68.3505 65.3554 68.7153 66.3668C69.0966 67.3616 69.4448 68.2984 69.7599 69.1771C70.0749 70.0559 70.3236 70.7108 70.506 71.1419C71.3847 68.5719 72.2303 66.1015 73.0428 63.7305C73.7143 61.7906 86.8707 22.3212 92.1681 6.45386C92.4417 5.5834 93.7101 5.80723 93.735 6.70257C93.735 6.71915 93.735 6.73573 93.735 6.75231V64.0041C93.7184 66.0103 93.6852 67.5605 93.6355 68.6548C93.5692 69.7491 93.4697 70.5781 93.337 71.1419H104.529C104.346 70.3294 104.205 69.3015 104.106 68.058C104.006 66.7979 103.957 65.1647 103.957 63.1585Z" fill="#111111"></path></g><path d="M14.8547 86.885C14.8335 86.6713 14.7426 86.5053 14.5818 86.3869C14.4211 86.2686 14.2029 86.2094 13.9274 86.2094C13.7401 86.2094 13.5821 86.2359 13.4531 86.2889C13.3242 86.3401 13.2253 86.4117 13.1564 86.5035C13.0892 86.5954 13.0557 86.6996 13.0557 86.8162C13.0521 86.9133 13.0725 86.9981 13.1166 87.0705C13.1625 87.1429 13.2253 87.2056 13.3047 87.2586C13.3842 87.3098 13.4761 87.3549 13.5803 87.3938C13.6845 87.4308 13.7958 87.4626 13.9141 87.4891L14.4017 87.6057C14.6383 87.6587 14.8556 87.7294 15.0534 87.8177C15.2513 87.906 15.4226 88.0146 15.5675 88.1436C15.7123 88.2725 15.8245 88.4244 15.9039 88.5993C15.9852 88.7742 16.0267 88.9747 16.0285 89.2007C16.0267 89.5328 15.9419 89.8207 15.7741 90.0645C15.6081 90.3065 15.3679 90.4946 15.0534 90.6289C14.7408 90.7613 14.3637 90.8276 13.9221 90.8276C13.484 90.8276 13.1025 90.7604 12.7775 90.6262C12.4542 90.492 12.2016 90.2932 12.0197 90.0301C11.8395 89.7651 11.745 89.4374 11.7362 89.0471H12.8464C12.8587 89.229 12.9108 89.3809 13.0027 89.5028C13.0963 89.6229 13.2208 89.7139 13.3763 89.7757C13.5335 89.8358 13.711 89.8658 13.9088 89.8658C14.1031 89.8658 14.2718 89.8375 14.4149 89.781C14.5597 89.7245 14.6719 89.6459 14.7514 89.5452C14.8309 89.4445 14.8706 89.3288 14.8706 89.1981C14.8706 89.0762 14.8344 88.9738 14.762 88.8907C14.6913 88.8077 14.5871 88.7371 14.4493 88.6788C14.3133 88.6205 14.1464 88.5675 13.9486 88.5198L13.3577 88.3714C12.9002 88.2602 12.539 88.0862 12.2741 87.8495C12.0091 87.6128 11.8775 87.294 11.8793 86.893C11.8775 86.5644 11.9649 86.2774 12.1416 86.0319C12.32 85.7864 12.5646 85.5947 12.8755 85.4569C13.1864 85.3192 13.5397 85.2503 13.9353 85.2503C14.3381 85.2503 14.6896 85.3192 14.9899 85.4569C15.2919 85.5947 15.5268 85.7864 15.6946 86.0319C15.8624 86.2774 15.949 86.5618 15.9543 86.885H14.8547ZM23.2042 88.0376C23.2042 88.6293 23.0921 89.1327 22.8677 89.5478C22.6452 89.9629 22.3414 90.28 21.9563 90.499C21.573 90.7163 21.142 90.8249 20.6633 90.8249C20.1811 90.8249 19.7483 90.7154 19.365 90.4964C18.9817 90.2773 18.6788 89.9603 18.4562 89.5452C18.2337 89.1301 18.1224 88.6276 18.1224 88.0376C18.1224 87.4459 18.2337 86.9424 18.4562 86.5273C18.6788 86.1123 18.9817 85.7961 19.365 85.5788C19.7483 85.3598 20.1811 85.2503 20.6633 85.2503C21.142 85.2503 21.573 85.3598 21.9563 85.5788C22.3414 85.7961 22.6452 86.1123 22.8677 86.5273C23.0921 86.9424 23.2042 87.4459 23.2042 88.0376ZM22.0411 88.0376C22.0411 87.6543 21.9837 87.331 21.8689 87.0679C21.7558 86.8047 21.5959 86.6051 21.3893 86.4691C21.1826 86.333 20.9406 86.265 20.6633 86.265C20.386 86.265 20.144 86.333 19.9373 86.4691C19.7307 86.6051 19.5699 86.8047 19.4551 87.0679C19.3421 87.331 19.2855 87.6543 19.2855 88.0376C19.2855 88.4209 19.3421 88.7441 19.4551 89.0073C19.5699 89.2705 19.7307 89.4701 19.9373 89.6061C20.144 89.7421 20.386 89.8101 20.6633 89.8101C20.9406 89.8101 21.1826 89.7421 21.3893 89.6061C21.5959 89.4701 21.7558 89.2705 21.8689 89.0073C21.9837 88.7441 22.0411 88.4209 22.0411 88.0376ZM30.2594 87.2242H29.0989C29.0777 87.074 29.0344 86.9407 28.9691 86.8241C28.9037 86.7058 28.8198 86.6051 28.7174 86.522C28.6149 86.439 28.4966 86.3754 28.3623 86.3313C28.2299 86.2871 28.0859 86.265 27.9305 86.265C27.6496 86.265 27.405 86.3348 27.1965 86.4744C26.9881 86.6121 26.8265 86.8135 26.7117 87.0785C26.5969 87.3416 26.5395 87.6614 26.5395 88.0376C26.5395 88.4244 26.5969 88.7494 26.7117 89.0126C26.8283 89.2758 26.9908 89.4745 27.1992 89.6088C27.4076 89.743 27.6487 89.8101 27.9225 89.8101C28.0762 89.8101 28.2184 89.7898 28.3491 89.7492C28.4816 89.7086 28.599 89.6494 28.7015 89.5717C28.8039 89.4922 28.8887 89.3959 28.9558 89.2829C29.0247 89.1698 29.0724 89.0409 29.0989 88.896L30.2594 88.9013C30.2294 89.1504 30.1543 89.3906 30.0342 89.622C29.9159 89.8517 29.756 90.0574 29.5546 90.2394C29.355 90.4195 29.1166 90.5626 28.8393 90.6686C28.5637 90.7728 28.2519 90.8249 27.904 90.8249C27.42 90.8249 26.9872 90.7154 26.6057 90.4964C26.2259 90.2773 25.9256 89.9603 25.7048 89.5452C25.4858 89.1301 25.3763 88.6276 25.3763 88.0376C25.3763 87.4459 25.4876 86.9424 25.7101 86.5273C25.9327 86.1123 26.2348 85.7961 26.6163 85.5788C26.9978 85.3598 27.4271 85.2503 27.904 85.2503C28.2184 85.2503 28.5098 85.2944 28.7783 85.3827C29.0486 85.4711 29.2879 85.6 29.4964 85.7696C29.7048 85.9374 29.8744 86.1432 30.0051 86.3869C30.1375 86.6307 30.2223 86.9098 30.2594 87.2242ZM33.647 85.3245V90.7507H32.4997V85.3245H33.647ZM36.9438 90.7507H35.7144L37.5876 85.3245H39.0661L40.9367 90.7507H39.7073L38.348 86.5644H38.3057L36.9438 90.7507ZM36.8669 88.6178H39.7709V89.5134H36.8669V88.6178ZM43.0074 90.7507V85.3245H44.1546V89.8048H46.4809V90.7507H43.0074ZM55.9276 85.3245L57.2391 89.4472H57.2894L58.6036 85.3245H59.8754L58.0048 90.7507H56.5264L54.6531 85.3245H55.9276ZM63.0934 85.3245V90.7507H61.9461V85.3245H63.0934ZM68.3986 86.885C68.3774 86.6713 68.2864 86.5053 68.1257 86.3869C67.9649 86.2686 67.7468 86.2094 67.4712 86.2094C67.284 86.2094 67.1259 86.2359 66.9969 86.2889C66.868 86.3401 66.7691 86.4117 66.7002 86.5035C66.6331 86.5954 66.5995 86.6996 66.5995 86.8162C66.596 86.9133 66.6163 86.9981 66.6605 87.0705C66.7064 87.1429 66.7691 87.2056 66.8486 87.2586C66.9281 87.3098 67.0199 87.3549 67.1241 87.3938C67.2283 87.4308 67.3396 87.4626 67.458 87.4891L67.9455 87.6057C68.1822 87.6587 68.3994 87.7294 68.5973 87.8177C68.7951 87.906 68.9664 88.0146 69.1113 88.1436C69.2561 88.2725 69.3683 88.4244 69.4478 88.5993C69.529 88.7742 69.5705 88.9747 69.5723 89.2007C69.5705 89.5328 69.4858 89.8207 69.318 90.0645C69.1519 90.3065 68.9117 90.4946 68.5973 90.6289C68.2846 90.7613 67.9075 90.8276 67.4659 90.8276C67.0279 90.8276 66.6463 90.7604 66.3213 90.6262C65.9981 90.492 65.7455 90.2932 65.5635 90.0301C65.3834 89.7651 65.2889 89.4374 65.28 89.0471H66.3902C66.4026 89.229 66.4547 89.3809 66.5465 89.5028C66.6401 89.6229 66.7647 89.7139 66.9201 89.7757C67.0773 89.8358 67.2548 89.8658 67.4527 89.8658C67.647 89.8658 67.8157 89.8375 67.9587 89.781C68.1036 89.7245 68.2157 89.6459 68.2952 89.5452C68.3747 89.4445 68.4145 89.3288 68.4145 89.1981C68.4145 89.0762 68.3782 88.9738 68.3058 88.8907C68.2352 88.8077 68.131 88.7371 67.9932 88.6788C67.8572 88.6205 67.6902 88.5675 67.4924 88.5198L66.9016 88.3714C66.4441 88.2602 66.0829 88.0862 65.8179 87.8495C65.5529 87.6128 65.4213 87.294 65.4231 86.893C65.4213 86.5644 65.5088 86.2774 65.6854 86.0319C65.8638 85.7864 66.1085 85.5947 66.4193 85.4569C66.7302 85.3192 67.0835 85.2503 67.4792 85.2503C67.8819 85.2503 68.2334 85.3192 68.5337 85.4569C68.8357 85.5947 69.0707 85.7864 69.2385 86.0319C69.4063 86.2774 69.4928 86.5618 69.4981 86.885H68.3986ZM72.9089 85.3245V90.7507H71.7616V85.3245H72.9089ZM80.2568 88.0376C80.2568 88.6293 80.1447 89.1327 79.9203 89.5478C79.6978 89.9629 79.394 90.28 79.0089 90.499C78.6256 90.7163 78.1946 90.8249 77.7159 90.8249C77.2337 90.8249 76.8009 90.7154 76.4176 90.4964C76.0343 90.2773 75.7314 89.9603 75.5088 89.5452C75.2863 89.1301 75.175 88.6276 75.175 88.0376C75.175 87.4459 75.2863 86.9424 75.5088 86.5273C75.7314 86.1123 76.0343 85.7961 76.4176 85.5788C76.8009 85.3598 77.2337 85.2503 77.7159 85.2503C78.1946 85.2503 78.6256 85.3598 79.0089 85.5788C79.394 85.7961 79.6978 86.1123 79.9203 86.5273C80.1447 86.9424 80.2568 87.4459 80.2568 88.0376ZM79.0937 88.0376C79.0937 87.6543 79.0363 87.331 78.9215 87.0679C78.8084 86.8047 78.6486 86.6051 78.4419 86.4691C78.2352 86.333 77.9932 86.265 77.7159 86.265C77.4386 86.265 77.1966 86.333 76.9899 86.4691C76.7833 86.6051 76.6225 86.8047 76.5077 87.0679C76.3947 87.331 76.3381 87.6543 76.3381 88.0376C76.3381 88.4209 76.3947 88.7441 76.5077 89.0073C76.6225 89.2705 76.7833 89.4701 76.9899 89.6061C77.1966 89.7421 77.4386 89.8101 77.7159 89.8101C77.9932 89.8101 78.2352 89.7421 78.4419 89.6061C78.6486 89.4701 78.8084 89.2705 78.9215 89.0073C79.0363 88.7441 79.0937 88.4209 79.0937 88.0376ZM87.063 85.3245V90.7507H86.072L83.7113 87.3355H83.6715V90.7507H82.5243V85.3245H83.5311L85.8733 88.7371H85.921V85.3245H87.063Z" fill="#111111"></path><path d="M0.891044 101.435H0.112429L1.29881 97.9984H2.23516L3.41986 101.435H2.64125L1.78041 98.7837H1.75356L0.891044 101.435ZM0.84238 100.084H2.68152V100.651H0.84238V100.084ZM4.6546 97.9984V101.435H3.92801V97.9984H4.6546ZM7.75336 101.435H6.53509V97.9984H7.76342C8.1091 97.9984 8.40668 98.0672 8.65615 98.2048C8.90562 98.3413 9.09747 98.5376 9.23172 98.7938C9.36708 99.05 9.43476 99.3565 9.43476 99.7134C9.43476 100.071 9.36708 100.379 9.23172 100.636C9.09747 100.894 8.9045 101.091 8.65279 101.229C8.4022 101.366 8.10239 101.435 7.75336 101.435ZM7.26169 100.813H7.72315C7.93794 100.813 8.11861 100.774 8.26516 100.698C8.41283 100.621 8.52358 100.502 8.59742 100.341C8.67237 100.179 8.70984 99.9696 8.70984 99.7134C8.70984 99.4594 8.67237 99.2519 8.59742 99.0908C8.52358 98.9297 8.41339 98.8111 8.26684 98.7351C8.12029 98.659 7.93962 98.621 7.72483 98.621H7.26169V100.813ZM10.0675 101.435V97.9984H11.4234C11.6829 97.9984 11.9044 98.0448 12.0879 98.1377C12.2725 98.2294 12.4129 98.3598 12.5091 98.5287C12.6064 98.6965 12.6551 98.8939 12.6551 99.121C12.6551 99.3492 12.6058 99.5456 12.5074 99.71C12.4089 99.8734 12.2663 99.9986 12.0795 100.086C11.8938 100.173 11.6689 100.217 11.4049 100.217H10.4971V99.6328H11.2874C11.4262 99.6328 11.5414 99.6138 11.6331 99.5758C11.7249 99.5377 11.7931 99.4807 11.8378 99.4046C11.8837 99.3285 11.9066 99.234 11.9066 99.121C11.9066 99.0069 11.8837 98.9107 11.8378 98.8324C11.7931 98.7541 11.7243 98.6948 11.6314 98.6545C11.5397 98.6131 11.4239 98.5924 11.2841 98.5924H10.7941V101.435H10.0675ZM11.9234 99.8711L12.7776 101.435H11.9754L11.1398 99.8711H11.9234ZM13.9896 97.9984V101.435H13.263V97.9984H13.9896ZM15.3028 97.9984L16.1335 100.609H16.1653L16.9977 97.9984H17.8031L16.6184 101.435H15.6821L14.4957 97.9984H15.3028ZM18.3113 101.435V97.9984H20.627V98.5975H19.0379V99.4164H20.5078V100.015H19.0379V100.836H20.6337V101.435H18.3113ZM24.1736 97.9984V101.435H23.5461L22.0509 99.2721H22.0257V101.435H21.2992V97.9984H21.9368L23.4202 100.16H23.4504V97.9984H24.1736ZM28.4631 101.435H27.2448V97.9984H28.4732C28.8188 97.9984 29.1164 98.0672 29.3659 98.2048C29.6154 98.3413 29.8072 98.5376 29.9415 98.7938C30.0768 99.05 30.1445 99.3565 30.1445 99.7134C30.1445 100.071 30.0768 100.379 29.9415 100.636C29.8072 100.894 29.6142 101.091 29.3625 101.229C29.1119 101.366 28.8121 101.435 28.4631 101.435ZM27.9714 100.813H28.4329C28.6477 100.813 28.8283 100.774 28.9749 100.698C29.1226 100.621 29.2333 100.502 29.3072 100.341C29.3821 100.179 29.4196 99.9696 29.4196 99.7134C29.4196 99.4594 29.3821 99.2519 29.3072 99.0908C29.2333 98.9297 29.1231 98.8111 28.9766 98.7351C28.83 98.659 28.6494 98.621 28.4346 98.621H27.9714V100.813ZM31.5038 97.9984V101.435H30.7772V97.9984H31.5038ZM34.4749 99.1093C34.4514 99.0276 34.4184 98.9555 34.3759 98.8928C34.3334 98.829 34.2814 98.7754 34.2199 98.7317C34.1595 98.687 34.0901 98.6529 34.0118 98.6294C33.9346 98.6059 33.849 98.5941 33.7551 98.5941C33.5794 98.5941 33.425 98.6378 33.2919 98.725C33.1599 98.8123 33.057 98.9392 32.9832 99.1059C32.9093 99.2715 32.8724 99.474 32.8724 99.7134C32.8724 99.9528 32.9088 100.156 32.9815 100.324C33.0542 100.492 33.1571 100.62 33.2902 100.708C33.4234 100.796 33.5805 100.839 33.7618 100.839C33.9262 100.839 34.0666 100.81 34.183 100.752C34.3004 100.693 34.3899 100.609 34.4514 100.502C34.5141 100.395 34.5454 100.268 34.5454 100.121L34.6931 100.143H33.8071V99.5959H35.2452V100.029C35.2452 100.331 35.1814 100.59 35.0539 100.807C34.9263 101.023 34.7507 101.19 34.527 101.308C34.3032 101.424 34.047 101.482 33.7584 101.482C33.4362 101.482 33.1532 101.411 32.9093 101.269C32.6654 101.126 32.4753 100.923 32.3388 100.66C32.2034 100.396 32.1357 100.083 32.1357 99.7201C32.1357 99.4415 32.176 99.1932 32.2566 98.975C32.3382 98.7558 32.4523 98.5701 32.5989 98.4179C32.7454 98.2658 32.916 98.15 33.1107 98.0706C33.3053 97.9911 33.5162 97.9514 33.7433 97.9514C33.938 97.9514 34.1192 97.98 34.287 98.037C34.4548 98.0929 34.6036 98.1724 34.7334 98.2753C34.8642 98.3782 34.9711 98.5007 35.0539 98.6428C35.1366 98.7837 35.1898 98.9392 35.2133 99.1093H34.4749ZM36.612 97.9984V101.435H35.8855V97.9984H36.612ZM37.1735 98.5975V97.9984H39.996V98.5975H38.9438V101.435H38.2256V98.5975H37.1735ZM40.7277 101.435H39.9491L41.1355 97.9984H42.0718L43.2565 101.435H42.4779L41.6171 98.7837H41.5902L40.7277 101.435ZM40.679 100.084H42.5182V100.651H40.679V100.084ZM43.7647 101.435V97.9984H44.4913V100.836H45.9646V101.435H43.7647ZM47.7284 97.9984H48.6245L49.5709 100.307H49.6112L50.5576 97.9984H51.4537V101.435H50.7489V99.1982H50.7204L49.831 101.418H49.3511L48.4618 99.1898H48.4332V101.435H47.7284V97.9984ZM52.7392 101.435H51.9606L53.147 97.9984H54.0833L55.268 101.435H54.4894L53.6286 98.7837H53.6017L52.7392 101.435ZM52.6906 100.084H54.5297V100.651H52.6906V100.084ZM55.7762 101.435V97.9984H57.132C57.3916 97.9984 57.6131 98.0448 57.7966 98.1377C57.9811 98.2294 58.1215 98.3598 58.2177 98.5287C58.3151 98.6965 58.3637 98.8939 58.3637 99.121C58.3637 99.3492 58.3145 99.5456 58.2161 99.71C58.1176 99.8734 57.975 99.9986 57.7882 100.086C57.6025 100.173 57.3776 100.217 57.1136 100.217H56.2058V99.6328H56.9961C57.1348 99.6328 57.2501 99.6138 57.3418 99.5758C57.4335 99.5377 57.5018 99.4807 57.5465 99.4046C57.5924 99.3285 57.6153 99.234 57.6153 99.121C57.6153 99.0069 57.5924 98.9107 57.5465 98.8324C57.5018 98.7541 57.433 98.6948 57.3401 98.6545C57.2484 98.6131 57.1326 98.5924 56.9928 98.5924H56.5028V101.435H55.7762ZM57.6321 99.8711L58.4862 101.435H57.6841L56.8485 99.8711H57.6321ZM58.9717 101.435V97.9984H59.6983V99.5137H59.7436L60.9804 97.9984H61.8513L60.5759 99.5372L61.8664 101.435H60.9971L60.0557 100.022L59.6983 100.458V101.435H58.9717ZM62.3242 101.435V97.9984H64.6399V98.5975H63.0508V99.4164H64.5207V100.015H63.0508V100.836H64.6466V101.435H62.3242ZM65.1812 98.5975V97.9984H68.0036V98.5975H66.9515V101.435H66.2333V98.5975H65.1812ZM69.2896 97.9984V101.435H68.563V97.9984H69.2896ZM72.8564 97.9984V101.435H72.2288L70.7336 99.2721H70.7085V101.435H69.9819V97.9984H70.6195L72.1029 100.16H72.1331V97.9984H72.8564ZM75.83 99.1093C75.8065 99.0276 75.7735 98.9555 75.731 98.8928C75.6885 98.829 75.6365 98.7754 75.5749 98.7317C75.5145 98.687 75.4452 98.6529 75.3669 98.6294C75.2897 98.6059 75.2041 98.5941 75.1101 98.5941C74.9345 98.5941 74.7801 98.6378 74.647 98.725C74.515 98.8123 74.412 98.9392 74.3382 99.1059C74.2644 99.2715 74.2275 99.474 74.2275 99.7134C74.2275 99.9528 74.2638 100.156 74.3365 100.324C74.4092 100.492 74.5122 100.62 74.6453 100.708C74.7784 100.796 74.9356 100.839 75.1168 100.839C75.2813 100.839 75.4217 100.81 75.538 100.752C75.6555 100.693 75.745 100.609 75.8065 100.502C75.8691 100.395 75.9005 100.268 75.9005 100.121L76.0481 100.143H75.1621V99.5959H76.6002V100.029C76.6002 100.331 76.5365 100.59 76.4089 100.807C76.2814 101.023 76.1058 101.19 75.882 101.308C75.6583 101.424 75.4021 101.482 75.1135 101.482C74.7913 101.482 74.5082 101.411 74.2644 101.269C74.0205 101.126 73.8303 100.923 73.6938 100.66C73.5585 100.396 73.4908 100.083 73.4908 99.7201C73.4908 99.4415 73.5311 99.1932 73.6116 98.975C73.6933 98.7558 73.8074 98.5701 73.9539 98.4179C74.1005 98.2658 74.2711 98.15 74.4657 98.0706C74.6604 97.9911 74.8713 97.9514 75.0984 97.9514C75.293 97.9514 75.4742 97.98 75.6421 98.037C75.8099 98.0929 75.9586 98.1724 76.0884 98.2753C76.2193 98.3782 76.3261 98.5007 76.4089 98.6428C76.4917 98.7837 76.5448 98.9392 76.5683 99.1093H75.83ZM79.021 101.435H78.2424L79.4288 97.9984H80.3652L81.5499 101.435H80.7712L79.9104 98.7837H79.8836L79.021 101.435ZM78.9724 100.084H80.8115V100.651H78.9724V100.084ZM84.1753 99.1093C84.1518 99.0276 84.1188 98.9555 84.0763 98.8928C84.0338 98.829 83.9817 98.7754 83.9202 98.7317C83.8598 98.687 83.7904 98.6529 83.7121 98.6294C83.6349 98.6059 83.5494 98.5941 83.4554 98.5941C83.2798 98.5941 83.1254 98.6378 82.9923 98.725C82.8602 98.8123 82.7573 98.9392 82.6835 99.1059C82.6097 99.2715 82.5727 99.474 82.5727 99.7134C82.5727 99.9528 82.6091 100.156 82.6818 100.324C82.7545 100.492 82.8574 100.62 82.9906 100.708C83.1237 100.796 83.2809 100.839 83.4621 100.839C83.6266 100.839 83.767 100.81 83.8833 100.752C84.0008 100.693 84.0903 100.609 84.1518 100.502C84.2144 100.395 84.2458 100.268 84.2458 100.121L84.3934 100.143H83.5074V99.5959H84.9455V100.029C84.9455 100.331 84.8817 100.59 84.7542 100.807C84.6267 101.023 84.451 101.19 84.2273 101.308C84.0036 101.424 83.7474 101.482 83.4587 101.482C83.1366 101.482 82.8535 101.411 82.6097 101.269C82.3658 101.126 82.1756 100.923 82.0391 100.66C81.9038 100.396 81.8361 100.083 81.8361 99.7201C81.8361 99.4415 81.8763 99.1932 81.9569 98.975C82.0386 98.7558 82.1527 98.5701 82.2992 98.4179C82.4458 98.2658 82.6164 98.15 82.811 98.0706C83.0057 97.9911 83.2166 97.9514 83.4436 97.9514C83.6383 97.9514 83.8195 97.98 83.9873 98.037C84.1551 98.0929 84.3039 98.1724 84.4337 98.2753C84.5646 98.3782 84.6714 98.5007 84.7542 98.6428C84.837 98.7837 84.8901 98.9392 84.9136 99.1093H84.1753ZM85.5858 101.435V97.9984H87.9015V98.5975H86.3124V99.4164H87.7824V100.015H86.3124V100.836H87.9082V101.435H85.5858ZM91.4482 97.9984V101.435H90.8206L89.3254 99.2721H89.3003V101.435H88.5737V97.9984H89.2113L90.6947 100.16H90.7249V97.9984H91.4482ZM95.1752 99.2016H94.4403C94.4268 99.1065 94.3994 99.022 94.358 98.9482C94.3166 98.8732 94.2635 98.8095 94.1986 98.7569C94.1337 98.7043 94.0588 98.664 93.9738 98.6361C93.8899 98.6081 93.7987 98.5941 93.7002 98.5941C93.5224 98.5941 93.3674 98.6383 93.2354 98.7267C93.1034 98.8139 93.001 98.9415 92.9283 99.1093C92.8556 99.276 92.8193 99.4785 92.8193 99.7167C92.8193 99.9617 92.8556 100.168 92.9283 100.334C93.0022 100.501 93.1051 100.627 93.2371 100.712C93.3691 100.797 93.5218 100.839 93.6952 100.839C93.7925 100.839 93.8826 100.826 93.9654 100.801C94.0493 100.775 94.1237 100.738 94.1885 100.688C94.2534 100.638 94.3071 100.577 94.3496 100.505C94.3933 100.434 94.4235 100.352 94.4403 100.26L95.1752 100.264C95.1562 100.422 95.1087 100.574 95.0326 100.72C94.9577 100.866 94.8564 100.996 94.7289 101.111C94.6025 101.225 94.4514 101.316 94.2758 101.383C94.1013 101.449 93.9038 101.482 93.6835 101.482C93.3769 101.482 93.1029 101.413 92.8612 101.274C92.6207 101.135 92.4305 100.934 92.2907 100.672C92.152 100.409 92.0826 100.09 92.0826 99.7167C92.0826 99.342 92.1531 99.0231 92.294 98.7602C92.435 98.4974 92.6263 98.2971 92.8679 98.1595C93.1096 98.0208 93.3814 97.9514 93.6835 97.9514C93.8826 97.9514 94.0672 97.9794 94.2372 98.0353C94.4084 98.0913 94.56 98.1729 94.692 98.2803C94.824 98.3866 94.9314 98.5169 95.0141 98.6713C95.0981 98.8257 95.1517 99.0024 95.1752 99.2016ZM95.5894 97.9984H96.4033L97.1869 99.4785H97.2205L98.0041 97.9984H98.818L97.5645 100.22V101.435H96.8429V100.22L95.5894 97.9984Z" fill="#111111"></path></svg>