<svg width="105" height="109" viewBox="0 0 105 109" fill="none" xmlns="http://www.w3.org/2000/svg">
<mask id="mask0_282_689" style="mask-type:luminance" maskUnits="userSpaceOnUse" x="7" y="0" width="91" height="76">
<path d="M7.36563 0H97.3423V75.3752H7.36563V0Z" fill="white"/>
</mask>
<g mask="url(#mask0_282_689)">
<path d="M47.1965 41.9494C50.564 45.545 52.2478 50.0262 52.2478 55.3933C52.2478 61.5496 50.0642 66.6184 45.6969 70.5999C45.0304 71.2664 44.3639 71.8276 43.6974 72.2836C45.1005 69.8281 45.8021 67.0832 45.8021 64.0489C45.8021 59.8044 44.5393 56.3229 42.0136 53.6043C41.6804 53.3412 41.2506 52.9729 40.7245 52.4993C40.1983 52.0433 39.3827 51.4645 38.2777 50.7629C37.1903 50.0613 35.7696 49.2194 34.0157 48.2372C32.2617 47.2375 30.0518 46.0097 27.3858 44.554C19.2476 40.3095 13.8191 36.1 11.1005 31.9257C8.64504 28.4178 7.41729 24.1031 7.41729 18.9817C7.41729 14.018 8.87305 9.84367 11.7846 6.45858C11.6443 6.98476 11.5478 7.54602 11.4952 8.14235C11.425 8.73869 11.3899 9.33503 11.3899 9.93137C11.3899 14.1759 12.9773 17.8942 16.1519 21.0864C17.4849 22.4018 19.3791 23.9102 21.8346 25.6115C24.2901 27.2953 27.3683 29.1632 31.0691 31.2153C36.173 34.0742 39.9264 36.3456 42.3293 38.0294C44.6971 39.7307 46.3195 41.0373 47.1965 41.9494ZM7.41729 65.7327C8.41703 67.5217 9.55709 69.223 10.8375 70.8366C12.1354 72.4678 13.6437 73.9499 15.3626 75.2829H7.41729V65.7327ZM109.97 66.8114V5.77455C109.97 5.23083 110.005 4.41525 110.075 3.32781C110.145 2.24037 110.443 1.12663 110.969 -0.0134277H98.4464L78.8725 57.84L76.7678 52.6045C74.4526 46.7639 71.9532 40.1341 69.2697 32.7149C66.5862 25.2958 63.7185 17.0436 60.6667 7.95819C60.0703 6.29196 59.6231 5.01159 59.3249 4.11708C59.0267 3.22258 58.8075 2.56485 58.6672 2.14391C58.5444 1.70542 58.4655 1.40726 58.4304 1.2494C58.3953 1.07401 58.3778 0.889846 58.3778 0.696914C58.3778 0.363667 58.4129 0.126887 58.483 -0.0134277H41.5663C43.2852 1.31956 44.7936 2.79286 46.0915 4.40648C47.3894 6.03764 48.5382 7.71264 49.538 9.4315C50.0641 11.0276 50.6254 12.571 51.2217 14.0619C51.8181 15.5527 52.3793 17.026 52.9055 18.4818C54.7647 23.0595 56.3608 27.0848 57.6937 30.5576C59.0092 34.0479 60.1317 36.9507 61.0613 39.2659C63.0432 44.6329 64.8498 49.4387 66.481 53.6832C68.1121 57.9277 69.524 61.6724 70.7167 64.9171C70.9096 65.4608 71.1903 66.2063 71.5586 67.1534C71.9269 68.1181 72.304 69.1353 72.6899 70.2052C73.0933 71.2576 73.4616 72.2486 73.7948 73.1782C74.1281 74.1077 74.3912 74.8005 74.5841 75.2566C75.5137 72.538 76.4082 69.9246 77.2676 67.4165C77.978 65.3644 91.8954 23.612 97.4992 6.82691C97.7886 5.90609 99.1304 6.14287 99.1567 7.09C99.1567 7.10754 99.1567 7.12507 99.1567 7.14261V67.7059C99.1392 69.8281 99.1041 71.4681 99.0515 72.6257C98.9813 73.7832 98.8761 74.6602 98.7358 75.2566H110.575C110.382 74.3971 110.233 73.3097 110.128 71.9942C110.022 70.6613 109.97 68.9336 109.97 66.8114Z" fill="#111111"/>
</g>
<path d="M15.7139 92.5059C15.6915 92.2798 15.5953 92.1042 15.4252 91.979C15.2552 91.8538 15.0244 91.7912 14.733 91.7912C14.5349 91.7912 14.3677 91.8192 14.2313 91.8753C14.0948 91.9295 13.9902 92.0052 13.9173 92.1023C13.8463 92.1995 13.8108 92.3097 13.8108 92.4331C13.8071 92.5358 13.8286 92.6255 13.8753 92.7021C13.9239 92.7787 13.9902 92.8451 14.0743 92.9011C14.1584 92.9553 14.2555 93.003 14.3658 93.0441C14.476 93.0833 14.5937 93.1169 14.7189 93.145L15.2347 93.2683C15.485 93.3244 15.7149 93.3991 15.9241 93.4925C16.1334 93.5859 16.3147 93.7009 16.4679 93.8373C16.6211 93.9737 16.7398 94.1344 16.8238 94.3193C16.9098 94.5043 16.9537 94.7164 16.9556 94.9556C16.9537 95.3069 16.864 95.6114 16.6865 95.8693C16.5109 96.1253 16.2567 96.3243 15.9241 96.4663C15.5934 96.6064 15.1945 96.6765 14.7273 96.6765C14.264 96.6765 13.8603 96.6055 13.5165 96.4635C13.1746 96.3215 12.9074 96.1113 12.7149 95.8329C12.5243 95.5526 12.4244 95.206 12.415 94.793H13.5894C13.6025 94.9855 13.6576 95.1462 13.7548 95.2751C13.8538 95.4022 13.9855 95.4984 14.15 95.5638C14.3163 95.6273 14.5041 95.6591 14.7133 95.6591C14.9189 95.6591 15.0973 95.6292 15.2487 95.5694C15.4019 95.5096 15.5205 95.4265 15.6046 95.3199C15.6887 95.2134 15.7308 95.0911 15.7308 94.9528C15.7308 94.8239 15.6924 94.7155 15.6158 94.6277C15.5411 94.5398 15.4309 94.4651 15.2851 94.4034C15.1412 94.3418 14.9647 94.2857 14.7554 94.2353L14.1303 94.0783C13.6464 93.9606 13.2643 93.7765 12.984 93.5262C12.7037 93.2758 12.5645 92.9385 12.5664 92.5143C12.5645 92.1668 12.657 91.8632 12.8439 91.6034C13.0326 91.3437 13.2914 91.141 13.6202 90.9952C13.9491 90.8495 14.3228 90.7766 14.7414 90.7766C15.1674 90.7766 15.5392 90.8495 15.8569 90.9952C16.1764 91.141 16.4249 91.3437 16.6024 91.6034C16.7799 91.8632 16.8715 92.164 16.8771 92.5059H15.7139ZM24.5464 93.7252C24.5464 94.3511 24.4277 94.8836 24.1904 95.3227C23.955 95.7619 23.6336 96.0973 23.2263 96.329C22.8208 96.5588 22.3649 96.6737 21.8585 96.6737C21.3484 96.6737 20.8906 96.5579 20.4851 96.3262C20.0796 96.0945 19.7592 95.7591 19.5238 95.3199C19.2883 94.8808 19.1706 94.3492 19.1706 93.7252C19.1706 93.0992 19.2883 92.5667 19.5238 92.1276C19.7592 91.6884 20.0796 91.354 20.4851 91.1242C20.8906 90.8925 21.3484 90.7766 21.8585 90.7766C22.3649 90.7766 22.8208 90.8925 23.2263 91.1242C23.6336 91.354 23.955 91.6884 24.1904 92.1276C24.4277 92.5667 24.5464 93.0992 24.5464 93.7252ZM23.3159 93.7252C23.3159 93.3197 23.2552 92.9777 23.1338 92.6993C23.0142 92.4209 22.8451 92.2098 22.6265 92.0659C22.4078 91.922 22.1519 91.8501 21.8585 91.8501C21.5651 91.8501 21.3091 91.922 21.0905 92.0659C20.8719 92.2098 20.7019 92.4209 20.5804 92.6993C20.4608 92.9777 20.401 93.3197 20.401 93.7252C20.401 94.1306 20.4608 94.4726 20.5804 94.751C20.7019 95.0294 20.8719 95.2405 21.0905 95.3844C21.3091 95.5283 21.5651 95.6002 21.8585 95.6002C22.1519 95.6002 22.4078 95.5283 22.6265 95.3844C22.8451 95.2405 23.0142 95.0294 23.1338 94.751C23.2552 94.4726 23.3159 94.1306 23.3159 93.7252ZM32.0097 92.8647H30.782C30.7596 92.7059 30.7138 92.5648 30.6447 92.4415C30.5756 92.3163 30.4868 92.2098 30.3784 92.1219C30.2701 92.0341 30.1449 91.9669 30.0029 91.9201C29.8627 91.8734 29.7104 91.8501 29.546 91.8501C29.2489 91.8501 28.9901 91.9239 28.7696 92.0715C28.5491 92.2172 28.3782 92.4303 28.2567 92.7105C28.1352 92.9889 28.0745 93.3272 28.0745 93.7252C28.0745 94.1344 28.1352 94.4782 28.2567 94.7566C28.38 95.035 28.5519 95.2452 28.7724 95.3872C28.9929 95.5292 29.248 95.6002 29.5376 95.6002C29.7001 95.6002 29.8506 95.5787 29.9888 95.5358C30.129 95.4928 30.2532 95.4302 30.3616 95.348C30.47 95.2639 30.5597 95.1621 30.6307 95.0425C30.7036 94.9229 30.754 94.7865 30.782 94.6333L32.0097 94.6389C31.9779 94.9023 31.8985 95.1565 31.7714 95.4012C31.6462 95.6441 31.4771 95.8618 31.2641 96.0543C31.053 96.2449 30.8007 96.3962 30.5074 96.5083C30.2159 96.6186 29.8861 96.6737 29.518 96.6737C29.006 96.6737 28.5482 96.5579 28.1446 96.3262C27.7429 96.0945 27.4252 95.7591 27.1916 95.3199C26.9599 94.8808 26.8441 94.3492 26.8441 93.7252C26.8441 93.0992 26.9618 92.5667 27.1972 92.1276C27.4327 91.6884 27.7522 91.354 28.1558 91.1242C28.5594 90.8925 29.0135 90.7766 29.518 90.7766C29.8506 90.7766 30.1589 90.8233 30.4429 90.9167C30.7288 91.0102 30.982 91.1466 31.2025 91.326C31.4229 91.5035 31.6023 91.7211 31.7406 91.979C31.8807 92.2369 31.9704 92.5321 32.0097 92.8647ZM35.5932 90.8551V96.5952H34.3795V90.8551H35.5932ZM39.0807 96.5952H37.7802L39.7617 90.8551H41.3257L43.3045 96.5952H42.004L40.5661 92.1668H40.5213L39.0807 96.5952ZM38.9994 94.339H42.0712V95.2863H38.9994V94.339ZM45.495 96.5952V90.8551H46.7086V95.5946H49.1695V96.5952H45.495ZM59.1625 90.8551L60.5499 95.2162H60.6031L61.9933 90.8551H63.3387L61.3599 96.5952H59.7959L57.8143 90.8551H59.1625ZM66.7428 90.8551V96.5952H65.5292V90.8551H66.7428ZM72.3548 92.5059C72.3324 92.2798 72.2362 92.1042 72.0661 91.979C71.8961 91.8538 71.6653 91.7912 71.3738 91.7912C71.1758 91.7912 71.0085 91.8192 70.8721 91.8753C70.7357 91.9295 70.6311 92.0052 70.5582 92.1023C70.4872 92.1995 70.4517 92.3097 70.4517 92.4331C70.448 92.5358 70.4695 92.6255 70.5162 92.7021C70.5647 92.7787 70.6311 92.8451 70.7152 92.9011C70.7993 92.9553 70.8964 93.003 71.0067 93.0441C71.1169 93.0833 71.2346 93.1169 71.3598 93.145L71.8755 93.2683C72.1259 93.3244 72.3557 93.3991 72.565 93.4925C72.7743 93.5859 72.9555 93.7009 73.1088 93.8373C73.262 93.9737 73.3806 94.1344 73.4647 94.3193C73.5507 94.5043 73.5946 94.7164 73.5964 94.9556C73.5946 95.3069 73.5049 95.6114 73.3274 95.8693C73.1517 96.1253 72.8976 96.3243 72.565 96.4663C72.2343 96.6064 71.8354 96.6765 71.3682 96.6765C70.9048 96.6765 70.5012 96.6055 70.1574 96.4635C69.8155 96.3215 69.5483 96.1113 69.3558 95.8329C69.1652 95.5526 69.0652 95.206 69.0559 94.793H70.2303C70.2434 94.9855 70.2985 95.1462 70.3956 95.2751C70.4947 95.4022 70.6264 95.4984 70.7908 95.5638C70.9571 95.6273 71.1449 95.6591 71.3542 95.6591C71.5597 95.6591 71.7382 95.6292 71.8895 95.5694C72.0428 95.5096 72.1614 95.4265 72.2455 95.3199C72.3296 95.2134 72.3716 95.0911 72.3716 94.9528C72.3716 94.8239 72.3333 94.7155 72.2567 94.6277C72.182 94.5398 72.0717 94.4651 71.926 94.4034C71.7821 94.3418 71.6055 94.2857 71.3962 94.2353L70.7712 94.0783C70.2873 93.9606 69.9052 93.7765 69.6249 93.5262C69.3446 93.2758 69.2054 92.9385 69.2073 92.5143C69.2054 92.1668 69.2979 91.8632 69.4847 91.6034C69.6735 91.3437 69.9323 91.141 70.2611 90.9952C70.59 90.8495 70.9637 90.7766 71.3822 90.7766C71.8083 90.7766 72.1801 90.8495 72.4977 90.9952C72.8173 91.141 73.0658 91.3437 73.2433 91.6034C73.4208 91.8632 73.5124 92.164 73.518 92.5059H72.3548ZM77.126 90.8551V96.5952H75.9124V90.8551H77.126ZM84.899 93.7252C84.899 94.3511 84.7803 94.8836 84.543 95.3227C84.3076 95.7619 83.9862 96.0973 83.5789 96.329C83.1734 96.5588 82.7175 96.6737 82.2111 96.6737C81.701 96.6737 81.2432 96.5579 80.8377 96.3262C80.4322 96.0945 80.1118 95.7591 79.8764 95.3199C79.6409 94.8808 79.5232 94.3492 79.5232 93.7252C79.5232 93.0992 79.6409 92.5667 79.8764 92.1276C80.1118 91.6884 80.4322 91.354 80.8377 91.1242C81.2432 90.8925 81.701 90.7766 82.2111 90.7766C82.7175 90.7766 83.1734 90.8925 83.5789 91.1242C83.9862 91.354 84.3076 91.6884 84.543 92.1276C84.7803 92.5667 84.899 93.0992 84.899 93.7252ZM83.6686 93.7252C83.6686 93.3197 83.6078 92.9777 83.4864 92.6993C83.3668 92.4209 83.1977 92.2098 82.9791 92.0659C82.7604 91.922 82.5045 91.8501 82.2111 91.8501C81.9177 91.8501 81.6617 91.922 81.4431 92.0659C81.2245 92.2098 81.0545 92.4209 80.933 92.6993C80.8134 92.9777 80.7536 93.3197 80.7536 93.7252C80.7536 94.1306 80.8134 94.4726 80.933 94.751C81.0545 95.0294 81.2245 95.2405 81.4431 95.3844C81.6617 95.5283 81.9177 95.6002 82.2111 95.6002C82.5045 95.6002 82.7604 95.5283 82.9791 95.3844C83.1977 95.2405 83.3668 95.0294 83.4864 94.751C83.6078 94.4726 83.6686 94.1306 83.6686 93.7252ZM92.0988 90.8551V96.5952H91.0505L88.5532 92.9824H88.5112V96.5952H87.2976V90.8551H88.3627L90.8403 94.4651H90.8908V90.8551H92.0988Z" fill="#111111"/>
<path d="M0.942583 107.013H0.118932L1.37393 103.378H2.36445L3.61767 107.013H2.79402L1.88339 104.208H1.85499L0.942583 107.013ZM0.891105 105.584H2.83662V106.184H0.891105V105.584ZM4.92383 103.378V107.013H4.15521V103.378H4.92383ZM8.20182 107.013H6.91309V103.378H8.21247C8.57814 103.378 8.89293 103.45 9.15683 103.596C9.42073 103.74 9.62368 103.948 9.76569 104.219C9.90888 104.49 9.98048 104.814 9.98048 105.192C9.98048 105.57 9.90888 105.896 9.76569 106.168C9.62368 106.44 9.41955 106.649 9.15328 106.795C8.8882 106.94 8.57104 107.013 8.20182 107.013ZM7.68171 106.354H8.16987C8.39708 106.354 8.5882 106.314 8.74323 106.234C8.89944 106.152 9.0166 106.026 9.0947 105.856C9.17399 105.684 9.21363 105.463 9.21363 105.192C9.21363 104.923 9.17399 104.704 9.0947 104.533C9.0166 104.363 8.90003 104.237 8.745 104.157C8.58998 104.076 8.39886 104.036 8.17164 104.036H7.68171V106.354ZM10.6498 107.013V103.378H12.0841C12.3587 103.378 12.593 103.427 12.7871 103.525C12.9823 103.622 13.1308 103.76 13.2326 103.938C13.3356 104.116 13.387 104.325 13.387 104.565C13.387 104.807 13.335 105.014 13.2308 105.188C13.1267 105.361 12.9758 105.493 12.7782 105.586C12.5817 105.678 12.3439 105.724 12.0646 105.724H11.1042V105.107H11.9403C12.0871 105.107 12.209 105.086 12.306 105.046C12.403 105.006 12.4752 104.946 12.5226 104.865C12.5711 104.785 12.5953 104.685 12.5953 104.565C12.5953 104.444 12.5711 104.343 12.5226 104.26C12.4752 104.177 12.4024 104.114 12.3042 104.072C12.2072 104.028 12.0847 104.006 11.9368 104.006H11.4184V107.013H10.6498ZM12.6131 105.359L13.5166 107.013H12.6681L11.7841 105.359H12.6131ZM14.7988 103.378V107.013H14.0302V103.378H14.7988ZM16.188 103.378L17.0666 106.14H17.1004L17.9808 103.378H18.8329L17.5796 107.013H16.5891L15.3341 103.378H16.188ZM19.3704 107.013V103.378H21.8201V104.011H20.139V104.878H21.694V105.511H20.139V106.379H21.8272V107.013H19.3704ZM25.5719 103.378V107.013H24.908L23.3264 104.725H23.2997V107.013H22.5311V103.378H23.2057L24.7749 105.664H24.8068V103.378H25.5719ZM30.1094 107.013H28.8207V103.378H30.1201C30.4858 103.378 30.8005 103.45 31.0644 103.596C31.3283 103.74 31.5313 103.948 31.6733 104.219C31.8165 104.49 31.8881 104.814 31.8881 105.192C31.8881 105.57 31.8165 105.896 31.6733 106.168C31.5313 106.44 31.3272 106.649 31.0609 106.795C30.7958 106.94 30.4787 107.013 30.1094 107.013ZM29.5893 106.354H30.0775C30.3047 106.354 30.4958 106.314 30.6508 106.234C30.8071 106.152 30.9242 106.026 31.0023 105.856C31.0816 105.684 31.1212 105.463 31.1212 105.192C31.1212 104.923 31.0816 104.704 31.0023 104.533C30.9242 104.363 30.8076 104.237 30.6526 104.157C30.4976 104.076 30.3065 104.036 30.0793 104.036H29.5893V106.354ZM33.3261 103.378V107.013H32.5574V103.378H33.3261ZM36.469 104.553C36.4442 104.466 36.4092 104.39 36.3643 104.324C36.3193 104.256 36.2643 104.199 36.1992 104.153C36.1353 104.106 36.0619 104.07 35.9791 104.045C35.8974 104.02 35.8069 104.008 35.7075 104.008C35.5217 104.008 35.3584 104.054 35.2176 104.146C35.0779 104.238 34.969 104.373 34.8909 104.549C34.8128 104.724 34.7738 104.938 34.7738 105.192C34.7738 105.445 34.8122 105.66 34.8892 105.838C34.9661 106.015 35.075 106.151 35.2158 106.244C35.3566 106.337 35.5229 106.383 35.7146 106.383C35.8885 106.383 36.0371 106.352 36.1601 106.291C36.2844 106.228 36.3791 106.14 36.4442 106.026C36.5104 105.912 36.5436 105.778 36.5436 105.623L36.6998 105.646H35.7625V105.067H37.2838V105.525C37.2838 105.845 37.2163 106.119 37.0814 106.349C36.9465 106.577 36.7607 106.754 36.524 106.878C36.2874 107.001 36.0164 107.063 35.711 107.063C35.3702 107.063 35.0708 106.988 34.8128 106.837C34.5549 106.686 34.3537 106.471 34.2093 106.193C34.0661 105.914 33.9945 105.582 33.9945 105.199C33.9945 104.904 34.0371 104.641 34.1223 104.411C34.2087 104.179 34.3294 103.982 34.4844 103.821C34.6395 103.66 34.8199 103.538 35.0258 103.454C35.2318 103.37 35.4548 103.328 35.6951 103.328C35.901 103.328 36.0927 103.358 36.2702 103.418C36.4477 103.478 36.6051 103.562 36.7424 103.67C36.8808 103.779 36.9939 103.909 37.0814 104.059C37.169 104.208 37.2252 104.373 37.2501 104.553H36.469ZM38.7297 103.378V107.013H37.9611V103.378H38.7297ZM39.3236 104.011V103.378H42.3094V104.011H41.1964V107.013H40.4366V104.011H39.3236ZM43.0834 107.013H42.2598L43.5148 103.378H44.5053L45.7585 107.013H44.9349L44.0242 104.208H43.9958L43.0834 107.013ZM43.032 105.584H44.9775V106.184H43.032V105.584ZM46.2961 107.013V103.378H47.0647V106.379H48.6232V107.013H46.2961ZM50.4891 103.378H51.437L52.4382 105.82H52.4808L53.482 103.378H54.4299V107.013H53.6843V104.647H53.6541L52.7133 106.995H52.2057L51.2648 104.638H51.2347V107.013H50.4891V103.378ZM55.7897 107.013H54.9661L56.2211 103.378H57.2116L58.4648 107.013H57.6412L56.7305 104.208H56.7021L55.7897 107.013ZM55.7382 105.584H57.6838V106.184H55.7382V105.584ZM59.0024 107.013V103.378H60.4366C60.7112 103.378 60.9455 103.427 61.1396 103.525C61.3348 103.622 61.4834 103.76 61.5851 103.938C61.6881 104.116 61.7396 104.325 61.7396 104.565C61.7396 104.807 61.6875 105.014 61.5834 105.188C61.4792 105.361 61.3283 105.493 61.1307 105.586C60.9343 105.678 60.6964 105.724 60.4171 105.724H59.4568V105.107H60.2929C60.4396 105.107 60.5615 105.086 60.6585 105.046C60.7556 105.006 60.8278 104.946 60.8751 104.865C60.9236 104.785 60.9479 104.685 60.9479 104.565C60.9479 104.444 60.9236 104.343 60.8751 104.26C60.8278 104.177 60.755 104.114 60.6568 104.072C60.5597 104.028 60.4372 104.006 60.2893 104.006H59.771V107.013H59.0024ZM60.9656 105.359L61.8692 107.013H61.0207L60.1366 105.359H60.9656ZM62.3827 107.013V103.378H63.1513V104.98H63.1993L64.5075 103.378H65.4288L64.0797 105.005L65.4448 107.013H64.5253L63.5294 105.518L63.1513 105.98V107.013H62.3827ZM65.9291 107.013V103.378H68.3787V104.011H66.6977V104.878H68.2527V105.511H66.6977V106.379H68.3858V107.013H65.9291ZM68.9513 104.011V103.378H71.9371V104.011H70.8241V107.013H70.0643V104.011H68.9513ZM73.2974 103.378V107.013H72.5287V103.378H73.2974ZM77.0705 103.378V107.013H76.4066L74.825 104.725H74.7983V107.013H74.0297V103.378H74.7043L76.2735 105.664H76.3054V103.378H77.0705ZM80.2161 104.553C80.1912 104.466 80.1563 104.39 80.1114 104.324C80.0664 104.256 80.0114 104.199 79.9463 104.153C79.8824 104.106 79.809 104.07 79.7262 104.045C79.6445 104.02 79.554 104.008 79.4546 104.008C79.2688 104.008 79.1055 104.054 78.9646 104.146C78.825 104.238 78.7161 104.373 78.638 104.549C78.5599 104.724 78.5209 104.938 78.5209 105.192C78.5209 105.445 78.5593 105.66 78.6362 105.838C78.7132 106.015 78.822 106.151 78.9629 106.244C79.1037 106.337 79.27 106.383 79.4617 106.383C79.6356 106.383 79.7841 106.352 79.9072 106.291C80.0315 106.228 80.1262 106.14 80.1912 106.026C80.2575 105.912 80.2906 105.778 80.2906 105.623L80.4469 105.646H79.5096V105.067H81.0309V105.525C81.0309 105.845 80.9634 106.119 80.8285 106.349C80.6936 106.577 80.5078 106.754 80.2711 106.878C80.0344 107.001 79.7634 107.063 79.4581 107.063C79.1173 107.063 78.8179 106.988 78.5599 106.837C78.3019 106.686 78.1008 106.471 77.9564 106.193C77.8132 105.914 77.7416 105.582 77.7416 105.199C77.7416 104.904 77.7842 104.641 77.8694 104.411C77.9558 104.179 78.0765 103.982 78.2315 103.821C78.3865 103.66 78.567 103.538 78.7729 103.454C78.9788 103.37 79.2019 103.328 79.4421 103.328C79.6481 103.328 79.8398 103.358 80.0173 103.418C80.1948 103.478 80.3522 103.562 80.4895 103.67C80.6279 103.779 80.7409 103.909 80.8285 104.059C80.9161 104.208 80.9723 104.373 80.9971 104.553H80.2161ZM83.5917 107.013H82.7681L84.0231 103.378H85.0136L86.2668 107.013H85.4431L84.5325 104.208H84.5041L83.5917 107.013ZM83.5402 105.584H85.4857V106.184H83.5402V105.584ZM89.0441 104.553C89.0192 104.466 88.9843 104.39 88.9393 104.324C88.8944 104.256 88.8394 104.199 88.7743 104.153C88.7104 104.106 88.637 104.07 88.5541 104.045C88.4725 104.02 88.382 104.008 88.2826 104.008C88.0968 104.008 87.9335 104.054 87.7926 104.146C87.653 104.238 87.5441 104.373 87.466 104.549C87.3879 104.724 87.3489 104.938 87.3489 105.192C87.3489 105.445 87.3873 105.66 87.4642 105.838C87.5412 106.015 87.65 106.151 87.7909 106.244C87.9317 106.337 88.0979 106.383 88.2897 106.383C88.4636 106.383 88.6121 106.352 88.7352 106.291C88.8595 106.228 88.9541 106.14 89.0192 106.026C89.0855 105.912 89.1186 105.778 89.1186 105.623L89.2748 105.646H88.3376V105.067H89.8589V105.525C89.8589 105.845 89.7914 106.119 89.6565 106.349C89.5216 106.577 89.3358 106.754 89.0991 106.878C88.8624 107.001 88.5914 107.063 88.2861 107.063C87.9453 107.063 87.6459 106.988 87.3879 106.837C87.1299 106.686 86.9287 106.471 86.7844 106.193C86.6412 105.914 86.5696 105.582 86.5696 105.199C86.5696 104.904 86.6122 104.641 86.6974 104.411C86.7838 104.179 86.9045 103.982 87.0595 103.821C87.2145 103.66 87.395 103.538 87.6009 103.454C87.8068 103.37 88.0299 103.328 88.2701 103.328C88.476 103.328 88.6678 103.358 88.8453 103.418C89.0228 103.478 89.1802 103.562 89.3174 103.67C89.4559 103.779 89.5689 103.909 89.6565 104.059C89.7441 104.208 89.8003 104.373 89.8251 104.553H89.0441ZM90.5362 107.013V103.378H92.9858V104.011H91.3048V104.878H92.8598V105.511H91.3048V106.379H92.9929V107.013H90.5362ZM96.7377 103.378V107.013H96.0738L94.4921 104.725H94.4655V107.013H93.6969V103.378H94.3714L95.9406 105.664H95.9726V103.378H96.7377ZM100.68 104.65H99.9028C99.8886 104.55 99.8596 104.46 99.8158 104.382C99.772 104.303 99.7158 104.236 99.6472 104.18C99.5785 104.124 99.4993 104.082 99.4093 104.052C99.3206 104.023 99.2241 104.008 99.12 104.008C98.9318 104.008 98.7679 104.054 98.6283 104.148C98.4886 104.24 98.3803 104.375 98.3034 104.553C98.2265 104.729 98.188 104.943 98.188 105.195C98.188 105.454 98.2265 105.672 98.3034 105.848C98.3815 106.025 98.4904 106.158 98.63 106.248C98.7697 106.338 98.9312 106.383 99.1146 106.383C99.2176 106.383 99.3129 106.369 99.4004 106.342C99.4892 106.315 99.5679 106.275 99.6365 106.223C99.7052 106.17 99.762 106.105 99.8069 106.03C99.8531 105.954 99.885 105.867 99.9028 105.77L100.68 105.774C100.66 105.941 100.61 106.102 100.529 106.257C100.45 106.411 100.343 106.548 100.208 106.67C100.074 106.791 99.9146 106.887 99.7288 106.958C99.5442 107.028 99.3354 107.063 99.1022 107.063C98.778 107.063 98.488 106.989 98.2324 106.843C97.978 106.696 97.7768 106.483 97.6289 106.205C97.4821 105.927 97.4088 105.591 97.4088 105.195C97.4088 104.799 97.4833 104.462 97.6324 104.183C97.7815 103.905 97.9839 103.694 98.2395 103.548C98.4951 103.401 98.7827 103.328 99.1022 103.328C99.3129 103.328 99.5081 103.357 99.688 103.417C99.8691 103.476 100.029 103.562 100.169 103.676C100.309 103.788 100.422 103.926 100.51 104.089C100.599 104.253 100.655 104.44 100.68 104.65ZM101.118 103.378H101.979L102.808 104.943H102.844L103.673 103.378H104.534L103.208 105.728V107.013H102.444V105.728L101.118 103.378Z" fill="#111111"/>
</svg>
