<svg width="99" height="103" viewBox="0 0 99 103" fill="none" xmlns="http://www.w3.org/2000/svg">
<mask id="mask0_1_511" style="mask-type:luminance" maskUnits="userSpaceOnUse" x="6" y="0" width="87" height="72">
<path d="M6.96265 0H92.0196V71.2538H6.96265V0Z" fill="white"/>
</mask>
<g mask="url(#mask0_1_511)">
<path d="M44.6162 39.6558C47.7996 43.0548 49.3913 47.2911 49.3913 52.3646C49.3913 58.1843 47.3271 62.976 43.1986 66.7398C42.5685 67.3698 41.9385 67.9004 41.3084 68.3315C42.6349 66.0102 43.2981 63.4154 43.2981 60.547C43.2981 56.5346 42.1043 53.2434 39.7167 50.6735C39.4017 50.4247 38.9955 50.0766 38.4981 49.6289C38.0007 49.1978 37.2297 48.6507 36.1851 47.9874C35.1571 47.3242 33.8141 46.5284 32.1561 45.5999C30.4981 44.6548 28.409 43.4942 25.8888 42.118C18.1955 38.1056 13.0639 34.1263 10.4939 30.1802C8.17271 26.8641 7.01208 22.7854 7.01208 17.9439C7.01208 13.2517 8.38825 9.30562 11.1406 6.10562C11.0079 6.60303 10.9167 7.1336 10.867 7.69733C10.8007 8.26106 10.7675 8.82479 10.7675 9.38852C10.7675 13.4009 12.268 16.916 15.2691 19.9336C16.5292 21.1771 18.3198 22.603 20.6411 24.2113C22.9623 25.803 25.8722 27.5688 29.3706 29.5087C34.1955 32.2113 37.7437 34.3584 40.0152 35.9501C42.2535 37.5584 43.7872 38.7937 44.6162 39.6558ZM7.01208 62.1387C7.95716 63.8299 9.03488 65.4382 10.2452 66.9636C11.4722 68.5056 12.8981 69.9066 14.523 71.1667H7.01208V62.1387ZM103.957 63.1584V5.45899C103.957 4.945 103.99 4.17401 104.057 3.14603C104.123 2.11806 104.405 1.06521 104.902 -0.0125113H93.0638L74.5602 54.6776L72.5706 49.7284C70.382 44.2071 68.0193 37.9398 65.4825 30.9263C62.9457 23.9129 60.2348 16.1118 57.3499 7.52323C56.7861 5.94811 56.3633 4.73774 56.0815 3.89215C55.7996 3.04655 55.5924 2.42479 55.4597 2.02686C55.3437 1.61236 55.269 1.33049 55.2359 1.18127C55.2027 1.01547 55.1861 0.841373 55.1861 0.65899C55.1861 0.343964 55.2193 0.120131 55.2856 -0.0125113H39.2939C40.9188 1.24759 42.3447 2.64034 43.5716 4.16572C44.7986 5.70769 45.8846 7.29111 46.8297 8.91598C47.3271 10.4248 47.8577 11.8839 48.4214 13.2932C48.9851 14.7025 49.5157 16.0952 50.0131 17.4714C51.7706 21.7989 53.2794 25.604 54.5395 28.8869C55.783 32.1864 56.8442 34.9305 57.7229 37.1191C59.5965 42.1926 61.3043 46.7356 62.8462 50.7481C64.3882 54.7605 65.7229 58.3004 66.8504 61.3677C67.0328 61.8817 67.298 62.5864 67.6462 63.4817C67.9944 64.3936 68.3509 65.3553 68.7157 66.3667C69.097 67.3615 69.4452 68.2983 69.7602 69.1771C70.0752 70.0558 70.324 70.7107 70.5063 71.1418C71.3851 68.5719 72.2307 66.1014 73.0431 63.7304C73.7146 61.7905 86.8711 22.3211 92.1685 6.4538C92.4421 5.58334 93.7105 5.80717 93.7353 6.70251C93.7353 6.71909 93.7353 6.73567 93.7353 6.75225V64.004C93.7188 66.0102 93.6856 67.5605 93.6358 68.6548C93.5695 69.7491 93.47 70.5781 93.3374 71.1418H104.529C104.347 70.3294 104.206 69.3014 104.106 68.0579C104.007 66.7978 103.957 65.1646 103.957 63.1584Z" fill="white"/>
</g>
<path d="M14.8552 86.8851C14.834 86.6714 14.743 86.5053 14.5823 86.387C14.4215 86.2686 14.2034 86.2095 13.9278 86.2095C13.7406 86.2095 13.5825 86.236 13.4536 86.2889C13.3246 86.3402 13.2257 86.4117 13.1568 86.5036C13.0897 86.5954 13.0561 86.6996 13.0561 86.8162C13.0526 86.9134 13.0729 86.9981 13.1171 87.0706C13.163 87.143 13.2257 87.2057 13.3052 87.2587C13.3847 87.3099 13.4765 87.3549 13.5807 87.3938C13.685 87.4309 13.7962 87.4627 13.9146 87.4892L14.4021 87.6058C14.6388 87.6588 14.8561 87.7294 15.0539 87.8177C15.2517 87.9061 15.4231 88.0147 15.5679 88.1436C15.7128 88.2726 15.8249 88.4245 15.9044 88.5994C15.9857 88.7742 16.0272 88.9747 16.0289 89.2008C16.0272 89.5329 15.9424 89.8208 15.7746 90.0646C15.6085 90.3065 15.3683 90.4947 15.0539 90.6289C14.7413 90.7614 14.3641 90.8276 13.9225 90.8276C13.4845 90.8276 13.1029 90.7605 12.7779 90.6263C12.4547 90.492 12.2021 90.2933 12.0202 90.0301C11.84 89.7652 11.7455 89.4375 11.7367 89.0471H12.8468C12.8592 89.2291 12.9113 89.381 13.0031 89.5028C13.0968 89.623 13.2213 89.7139 13.3767 89.7758C13.5339 89.8358 13.7115 89.8658 13.9093 89.8658C14.1036 89.8658 14.2723 89.8376 14.4154 89.7811C14.5602 89.7245 14.6724 89.6459 14.7518 89.5452C14.8313 89.4446 14.8711 89.3289 14.8711 89.1981C14.8711 89.0763 14.8349 88.9738 14.7624 88.8908C14.6918 88.8078 14.5876 88.7371 14.4498 88.6788C14.3138 88.6205 14.1469 88.5676 13.949 88.5199L13.3582 88.3715C12.9007 88.2602 12.5395 88.0862 12.2745 87.8495C12.0096 87.6128 11.878 87.294 11.8797 86.893C11.878 86.5645 11.9654 86.2775 12.142 86.0319C12.3204 85.7864 12.5651 85.5948 12.876 85.457C13.1868 85.3192 13.5401 85.2503 13.9358 85.2503C14.3385 85.2503 14.69 85.3192 14.9903 85.457C15.2924 85.5948 15.5273 85.7864 15.6951 86.0319C15.8629 86.2775 15.9494 86.5618 15.9547 86.8851H14.8552ZM23.2047 88.0376C23.2047 88.6294 23.0925 89.1328 22.8682 89.5479C22.6456 89.963 22.3418 90.28 21.9567 90.4991C21.5734 90.7163 21.1424 90.825 20.6638 90.825C20.1815 90.825 19.7488 90.7155 19.3655 90.4964C18.9822 90.2774 18.6793 89.9603 18.4567 89.5452C18.2341 89.1301 18.1228 88.6276 18.1228 88.0376C18.1228 87.4459 18.2341 86.9425 18.4567 86.5274C18.6793 86.1123 18.9822 85.7961 19.3655 85.5789C19.7488 85.3598 20.1815 85.2503 20.6638 85.2503C21.1424 85.2503 21.5734 85.3598 21.9567 85.5789C22.3418 85.7961 22.6456 86.1123 22.8682 86.5274C23.0925 86.9425 23.2047 87.4459 23.2047 88.0376ZM22.0415 88.0376C22.0415 87.6543 21.9841 87.3311 21.8693 87.0679C21.7563 86.8047 21.5964 86.6051 21.3897 86.4691C21.1831 86.3331 20.9411 86.2651 20.6638 86.2651C20.3864 86.2651 20.1445 86.3331 19.9378 86.4691C19.7311 86.6051 19.5704 86.8047 19.4556 87.0679C19.3425 87.3311 19.286 87.6543 19.286 88.0376C19.286 88.4209 19.3425 88.7442 19.4556 89.0074C19.5704 89.2706 19.7311 89.4702 19.9378 89.6062C20.1445 89.7422 20.3864 89.8102 20.6638 89.8102C20.9411 89.8102 21.1831 89.7422 21.3897 89.6062C21.5964 89.4702 21.7563 89.2706 21.8693 89.0074C21.9841 88.7442 22.0415 88.4209 22.0415 88.0376ZM30.2599 87.2242H29.0994C29.0782 87.0741 29.0349 86.9407 28.9695 86.8242C28.9042 86.7058 28.8203 86.6051 28.7178 86.5221C28.6154 86.4391 28.497 86.3755 28.3628 86.3313C28.2303 86.2872 28.0864 86.2651 27.9309 86.2651C27.6501 86.2651 27.4054 86.3349 27.197 86.4744C26.9886 86.6122 26.8269 86.8136 26.7121 87.0785C26.5973 87.3417 26.5399 87.6614 26.5399 88.0376C26.5399 88.4245 26.5973 88.7495 26.7121 89.0127C26.8287 89.2759 26.9912 89.4746 27.1996 89.6088C27.4081 89.7431 27.6492 89.8102 27.923 89.8102C28.0766 89.8102 28.2188 89.7899 28.3496 89.7493C28.482 89.7086 28.5995 89.6495 28.7019 89.5717C28.8044 89.4922 28.8892 89.396 28.9563 89.2829C29.0252 89.1699 29.0729 89.0409 29.0994 88.8961L30.2599 88.9014C30.2299 89.1505 30.1548 89.3907 30.0347 89.6221C29.9163 89.8517 29.7565 90.0575 29.5551 90.2394C29.3555 90.4196 29.117 90.5627 28.8397 90.6686C28.5642 90.7729 28.2524 90.825 27.9044 90.825C27.4204 90.825 26.9877 90.7155 26.6061 90.4964C26.2264 90.2774 25.9261 89.9603 25.7053 89.5452C25.4863 89.1301 25.3768 88.6276 25.3768 88.0376C25.3768 87.4459 25.488 86.9425 25.7106 86.5274C25.9332 86.1123 26.2352 85.7961 26.6167 85.5789C26.9983 85.3598 27.4275 85.2503 27.9044 85.2503C28.2188 85.2503 28.5103 85.2945 28.7788 85.3828C29.049 85.4711 29.2884 85.6001 29.4968 85.7696C29.7052 85.9374 29.8748 86.1432 30.0055 86.387C30.138 86.6307 30.2228 86.9098 30.2599 87.2242ZM33.6474 85.3245V90.7508H32.5002V85.3245H33.6474ZM36.9442 90.7508H35.7149L37.5881 85.3245H39.0665L40.9371 90.7508H39.7077L38.3485 86.5645H38.3061L36.9442 90.7508ZM36.8674 88.6179H39.7713V89.5134H36.8674V88.6179ZM43.0078 90.7508V85.3245H44.1551V89.8049H46.4814V90.7508H43.0078ZM55.928 85.3245L57.2396 89.4472H57.2899L58.6041 85.3245H59.8759L58.0053 90.7508H56.5268L54.6536 85.3245H55.928ZM63.0939 85.3245V90.7508H61.9466V85.3245H63.0939ZM68.399 86.8851C68.3778 86.6714 68.2869 86.5053 68.1261 86.387C67.9654 86.2686 67.7472 86.2095 67.4717 86.2095C67.2844 86.2095 67.1263 86.236 66.9974 86.2889C66.8685 86.3402 66.7695 86.4117 66.7007 86.5036C66.6335 86.5954 66.6 86.6996 66.6 86.8162C66.5964 86.9134 66.6168 86.9981 66.6609 87.0706C66.7068 87.143 66.7695 87.2057 66.849 87.2587C66.9285 87.3099 67.0204 87.3549 67.1246 87.3938C67.2288 87.4309 67.3401 87.4627 67.4584 87.4892L67.9459 87.6058C68.1826 87.6588 68.3999 87.7294 68.5977 87.8177C68.7956 87.9061 68.9669 88.0147 69.1117 88.1436C69.2566 88.2726 69.3688 88.4245 69.4482 88.5994C69.5295 88.7742 69.571 88.9747 69.5728 89.2008C69.571 89.5329 69.4862 89.8208 69.3184 90.0646C69.1524 90.3065 68.9121 90.4947 68.5977 90.6289C68.2851 90.7614 67.908 90.8276 67.4664 90.8276C67.0283 90.8276 66.6468 90.7605 66.3218 90.6263C65.9985 90.492 65.7459 90.2933 65.564 90.0301C65.3838 89.7652 65.2893 89.4375 65.2805 89.0471H66.3907C66.403 89.2291 66.4551 89.381 66.547 89.5028C66.6406 89.623 66.7651 89.7139 66.9206 89.7758C67.0778 89.8358 67.2553 89.8658 67.4531 89.8658C67.6474 89.8658 67.8161 89.8376 67.9592 89.7811C68.104 89.7245 68.2162 89.6459 68.2957 89.5452C68.3752 89.4446 68.4149 89.3289 68.4149 89.1981C68.4149 89.0763 68.3787 88.9738 68.3063 88.8908C68.2356 88.8078 68.1314 88.7371 67.9936 88.6788C67.8576 88.6205 67.6907 88.5676 67.4929 88.5199L66.902 88.3715C66.4445 88.2602 66.0833 88.0862 65.8184 87.8495C65.5534 87.6128 65.4218 87.294 65.4236 86.893C65.4218 86.5645 65.5092 86.2775 65.6859 86.0319C65.8643 85.7864 66.1089 85.5948 66.4198 85.457C66.7307 85.3192 67.084 85.2503 67.4796 85.2503C67.8824 85.2503 68.2339 85.3192 68.5341 85.457C68.8362 85.5948 69.0711 85.7864 69.2389 86.0319C69.4067 86.2775 69.4933 86.5618 69.4986 86.8851H68.399ZM72.9093 85.3245V90.7508H71.7621V85.3245H72.9093ZM80.2573 88.0376C80.2573 88.6294 80.1451 89.1328 79.9208 89.5479C79.6982 89.963 79.3944 90.28 79.0094 90.4991C78.6261 90.7163 78.1951 90.825 77.7164 90.825C77.2342 90.825 76.8014 90.7155 76.4181 90.4964C76.0348 90.2774 75.7319 89.9603 75.5093 89.5452C75.2867 89.1301 75.1755 88.6276 75.1755 88.0376C75.1755 87.4459 75.2867 86.9425 75.5093 86.5274C75.7319 86.1123 76.0348 85.7961 76.4181 85.5789C76.8014 85.3598 77.2342 85.2503 77.7164 85.2503C78.1951 85.2503 78.6261 85.3598 79.0094 85.5789C79.3944 85.7961 79.6982 86.1123 79.9208 86.5274C80.1451 86.9425 80.2573 87.4459 80.2573 88.0376ZM79.0941 88.0376C79.0941 87.6543 79.0367 87.3311 78.9219 87.0679C78.8089 86.8047 78.649 86.6051 78.4423 86.4691C78.2357 86.3331 77.9937 86.2651 77.7164 86.2651C77.4391 86.2651 77.1971 86.3331 76.9904 86.4691C76.7837 86.6051 76.623 86.8047 76.5082 87.0679C76.3951 87.3311 76.3386 87.6543 76.3386 88.0376C76.3386 88.4209 76.3951 88.7442 76.5082 89.0074C76.623 89.2706 76.7837 89.4702 76.9904 89.6062C77.1971 89.7422 77.4391 89.8102 77.7164 89.8102C77.9937 89.8102 78.2357 89.7422 78.4423 89.6062C78.649 89.4702 78.8089 89.2706 78.9219 89.0074C79.0367 88.7442 79.0941 88.4209 79.0941 88.0376ZM87.0634 85.3245V90.7508H86.0725L83.7117 87.3355H83.672V90.7508H82.5248V85.3245H83.5316L85.8738 88.7371H85.9215V85.3245H87.0634Z" fill="white"/>
<path d="M0.891044 101.435H0.112429L1.29881 97.9984H2.23516L3.41986 101.435H2.64125L1.78041 98.7837H1.75356L0.891044 101.435ZM0.84238 100.084H2.68152V100.651H0.84238V100.084ZM4.6546 97.9984V101.435H3.92801V97.9984H4.6546ZM7.75336 101.435H6.53509V97.9984H7.76342C8.1091 97.9984 8.40668 98.0672 8.65615 98.2048C8.90562 98.3413 9.09747 98.5376 9.23172 98.7938C9.36708 99.05 9.43476 99.3565 9.43476 99.7134C9.43476 100.071 9.36708 100.379 9.23172 100.636C9.09747 100.894 8.9045 101.091 8.65279 101.229C8.4022 101.366 8.10239 101.435 7.75336 101.435ZM7.26169 100.812H7.72315C7.93794 100.812 8.11861 100.774 8.26516 100.698C8.41283 100.621 8.52358 100.502 8.59742 100.341C8.67237 100.179 8.70984 99.9695 8.70984 99.7134C8.70984 99.4594 8.67237 99.2519 8.59742 99.0908C8.52358 98.9297 8.41339 98.8111 8.26684 98.7351C8.12029 98.659 7.93962 98.621 7.72483 98.621H7.26169V100.812ZM10.0675 101.435V97.9984H11.4234C11.6829 97.9984 11.9044 98.0448 12.0879 98.1377C12.2725 98.2294 12.4129 98.3597 12.5091 98.5287C12.6064 98.6965 12.6551 98.8939 12.6551 99.121C12.6551 99.3492 12.6058 99.5456 12.5074 99.71C12.4089 99.8733 12.2663 99.9986 12.0795 100.086C11.8938 100.173 11.6689 100.217 11.4049 100.217H10.4971V99.6328H11.2874C11.4262 99.6328 11.5414 99.6138 11.6331 99.5758C11.7249 99.5377 11.7931 99.4807 11.8378 99.4046C11.8837 99.3285 11.9066 99.234 11.9066 99.121C11.9066 99.0069 11.8837 98.9107 11.8378 98.8324C11.7931 98.7541 11.7243 98.6948 11.6314 98.6545C11.5397 98.6131 11.4239 98.5924 11.2841 98.5924H10.7941V101.435H10.0675ZM11.9234 99.8711L12.7776 101.435H11.9754L11.1398 99.8711H11.9234ZM13.9896 97.9984V101.435H13.263V97.9984H13.9896ZM15.3028 97.9984L16.1335 100.609H16.1653L16.9977 97.9984H17.8031L16.6184 101.435H15.6821L14.4957 97.9984H15.3028ZM18.3113 101.435V97.9984H20.627V98.5975H19.0379V99.4164H20.5078V100.015H19.0379V100.836H20.6337V101.435H18.3113ZM24.1736 97.9984V101.435H23.5461L22.0509 99.272H22.0257V101.435H21.2992V97.9984H21.9368L23.4202 100.16H23.4504V97.9984H24.1736ZM28.4631 101.435H27.2448V97.9984H28.4732C28.8188 97.9984 29.1164 98.0672 29.3659 98.2048C29.6154 98.3413 29.8072 98.5376 29.9415 98.7938C30.0768 99.05 30.1445 99.3565 30.1445 99.7134C30.1445 100.071 30.0768 100.379 29.9415 100.636C29.8072 100.894 29.6142 101.091 29.3625 101.229C29.1119 101.366 28.8121 101.435 28.4631 101.435ZM27.9714 100.812H28.4329C28.6477 100.812 28.8283 100.774 28.9749 100.698C29.1226 100.621 29.2333 100.502 29.3072 100.341C29.3821 100.179 29.4196 99.9695 29.4196 99.7134C29.4196 99.4594 29.3821 99.2519 29.3072 99.0908C29.2333 98.9297 29.1231 98.8111 28.9766 98.7351C28.83 98.659 28.6494 98.621 28.4346 98.621H27.9714V100.812ZM31.5038 97.9984V101.435H30.7772V97.9984H31.5038ZM34.4749 99.1093C34.4514 99.0276 34.4184 98.9554 34.3759 98.8928C34.3334 98.829 34.2814 98.7753 34.2199 98.7317C34.1595 98.687 34.0901 98.6528 34.0118 98.6293C33.9346 98.6059 33.849 98.5941 33.7551 98.5941C33.5794 98.5941 33.425 98.6377 33.2919 98.725C33.1599 98.8123 33.057 98.9392 32.9832 99.1059C32.9093 99.2715 32.8724 99.474 32.8724 99.7134C32.8724 99.9528 32.9088 100.156 32.9815 100.324C33.0542 100.492 33.1571 100.62 33.2902 100.708C33.4234 100.796 33.5805 100.839 33.7618 100.839C33.9262 100.839 34.0666 100.81 34.183 100.752C34.3004 100.693 34.3899 100.609 34.4514 100.502C34.5141 100.395 34.5454 100.268 34.5454 100.121L34.6931 100.143H33.8071V99.5959H35.2452V100.029C35.2452 100.331 35.1814 100.59 35.0539 100.807C34.9263 101.023 34.7507 101.19 34.527 101.308C34.3032 101.424 34.047 101.482 33.7584 101.482C33.4362 101.482 33.1532 101.411 32.9093 101.269C32.6654 101.126 32.4753 100.923 32.3388 100.66C32.2034 100.396 32.1357 100.083 32.1357 99.7201C32.1357 99.4415 32.176 99.1932 32.2566 98.975C32.3382 98.7558 32.4523 98.5701 32.5989 98.4179C32.7454 98.2658 32.916 98.15 33.1107 98.0706C33.3053 97.9911 33.5162 97.9514 33.7433 97.9514C33.938 97.9514 34.1192 97.9799 34.287 98.037C34.4548 98.0929 34.6036 98.1724 34.7334 98.2753C34.8642 98.3782 34.9711 98.5007 35.0539 98.6428C35.1366 98.7837 35.1898 98.9392 35.2133 99.1093H34.4749ZM36.612 97.9984V101.435H35.8855V97.9984H36.612ZM37.1735 98.5975V97.9984H39.996V98.5975H38.9438V101.435H38.2256V98.5975H37.1735ZM40.7277 101.435H39.9491L41.1355 97.9984H42.0718L43.2565 101.435H42.4779L41.6171 98.7837H41.5902L40.7277 101.435ZM40.679 100.084H42.5182V100.651H40.679V100.084ZM43.7647 101.435V97.9984H44.4913V100.836H45.9646V101.435H43.7647ZM47.7284 97.9984H48.6245L49.5709 100.307H49.6112L50.5576 97.9984H51.4537V101.435H50.7489V99.1982H50.7204L49.831 101.418H49.3511L48.4618 99.1898H48.4332V101.435H47.7284V97.9984ZM52.7392 101.435H51.9606L53.147 97.9984H54.0833L55.268 101.435H54.4894L53.6286 98.7837H53.6017L52.7392 101.435ZM52.6906 100.084H54.5297V100.651H52.6906V100.084ZM55.7762 101.435V97.9984H57.132C57.3916 97.9984 57.6131 98.0448 57.7966 98.1377C57.9811 98.2294 58.1215 98.3597 58.2177 98.5287C58.3151 98.6965 58.3637 98.8939 58.3637 99.121C58.3637 99.3492 58.3145 99.5456 58.2161 99.71C58.1176 99.8733 57.975 99.9986 57.7882 100.086C57.6025 100.173 57.3776 100.217 57.1136 100.217H56.2058V99.6328H56.9961C57.1348 99.6328 57.2501 99.6138 57.3418 99.5758C57.4335 99.5377 57.5018 99.4807 57.5465 99.4046C57.5924 99.3285 57.6153 99.234 57.6153 99.121C57.6153 99.0069 57.5924 98.9107 57.5465 98.8324C57.5018 98.7541 57.433 98.6948 57.3401 98.6545C57.2484 98.6131 57.1326 98.5924 56.9928 98.5924H56.5028V101.435H55.7762ZM57.6321 99.8711L58.4862 101.435H57.6841L56.8485 99.8711H57.6321ZM58.9717 101.435V97.9984H59.6983V99.5137H59.7436L60.9804 97.9984H61.8513L60.5759 99.5372L61.8664 101.435H60.9971L60.0557 100.022L59.6983 100.458V101.435H58.9717ZM62.3242 101.435V97.9984H64.6399V98.5975H63.0508V99.4164H64.5207V100.015H63.0508V100.836H64.6466V101.435H62.3242ZM65.1812 98.5975V97.9984H68.0036V98.5975H66.9515V101.435H66.2333V98.5975H65.1812ZM69.2896 97.9984V101.435H68.563V97.9984H69.2896ZM72.8564 97.9984V101.435H72.2288L70.7336 99.272H70.7085V101.435H69.9819V97.9984H70.6195L72.1029 100.16H72.1331V97.9984H72.8564ZM75.83 99.1093C75.8065 99.0276 75.7735 98.9554 75.731 98.8928C75.6885 98.829 75.6365 98.7753 75.5749 98.7317C75.5145 98.687 75.4452 98.6528 75.3669 98.6293C75.2897 98.6059 75.2041 98.5941 75.1101 98.5941C74.9345 98.5941 74.7801 98.6377 74.647 98.725C74.515 98.8123 74.412 98.9392 74.3382 99.1059C74.2644 99.2715 74.2275 99.474 74.2275 99.7134C74.2275 99.9528 74.2638 100.156 74.3365 100.324C74.4092 100.492 74.5122 100.62 74.6453 100.708C74.7784 100.796 74.9356 100.839 75.1168 100.839C75.2813 100.839 75.4217 100.81 75.538 100.752C75.6555 100.693 75.745 100.609 75.8065 100.502C75.8691 100.395 75.9005 100.268 75.9005 100.121L76.0481 100.143H75.1621V99.5959H76.6002V100.029C76.6002 100.331 76.5365 100.59 76.4089 100.807C76.2814 101.023 76.1058 101.19 75.882 101.308C75.6583 101.424 75.4021 101.482 75.1135 101.482C74.7913 101.482 74.5082 101.411 74.2644 101.269C74.0205 101.126 73.8303 100.923 73.6938 100.66C73.5585 100.396 73.4908 100.083 73.4908 99.7201C73.4908 99.4415 73.5311 99.1932 73.6116 98.975C73.6933 98.7558 73.8074 98.5701 73.9539 98.4179C74.1005 98.2658 74.2711 98.15 74.4657 98.0706C74.6604 97.9911 74.8713 97.9514 75.0984 97.9514C75.293 97.9514 75.4742 97.9799 75.6421 98.037C75.8099 98.0929 75.9586 98.1724 76.0884 98.2753C76.2193 98.3782 76.3261 98.5007 76.4089 98.6428C76.4917 98.7837 76.5448 98.9392 76.5683 99.1093H75.83ZM79.021 101.435H78.2424L79.4288 97.9984H80.3652L81.5499 101.435H80.7712L79.9104 98.7837H79.8836L79.021 101.435ZM78.9724 100.084H80.8115V100.651H78.9724V100.084ZM84.1753 99.1093C84.1518 99.0276 84.1188 98.9554 84.0763 98.8928C84.0338 98.829 83.9817 98.7753 83.9202 98.7317C83.8598 98.687 83.7904 98.6528 83.7121 98.6293C83.6349 98.6059 83.5494 98.5941 83.4554 98.5941C83.2798 98.5941 83.1254 98.6377 82.9923 98.725C82.8602 98.8123 82.7573 98.9392 82.6835 99.1059C82.6097 99.2715 82.5727 99.474 82.5727 99.7134C82.5727 99.9528 82.6091 100.156 82.6818 100.324C82.7545 100.492 82.8574 100.62 82.9906 100.708C83.1237 100.796 83.2809 100.839 83.4621 100.839C83.6266 100.839 83.767 100.81 83.8833 100.752C84.0008 100.693 84.0903 100.609 84.1518 100.502C84.2144 100.395 84.2458 100.268 84.2458 100.121L84.3934 100.143H83.5074V99.5959H84.9455V100.029C84.9455 100.331 84.8817 100.59 84.7542 100.807C84.6267 101.023 84.451 101.19 84.2273 101.308C84.0036 101.424 83.7474 101.482 83.4587 101.482C83.1366 101.482 82.8535 101.411 82.6097 101.269C82.3658 101.126 82.1756 100.923 82.0391 100.66C81.9038 100.396 81.8361 100.083 81.8361 99.7201C81.8361 99.4415 81.8763 99.1932 81.9569 98.975C82.0386 98.7558 82.1527 98.5701 82.2992 98.4179C82.4458 98.2658 82.6164 98.15 82.811 98.0706C83.0057 97.9911 83.2166 97.9514 83.4436 97.9514C83.6383 97.9514 83.8195 97.9799 83.9873 98.037C84.1551 98.0929 84.3039 98.1724 84.4337 98.2753C84.5646 98.3782 84.6714 98.5007 84.7542 98.6428C84.837 98.7837 84.8901 98.9392 84.9136 99.1093H84.1753ZM85.5858 101.435V97.9984H87.9015V98.5975H86.3124V99.4164H87.7824V100.015H86.3124V100.836H87.9082V101.435H85.5858ZM91.4482 97.9984V101.435H90.8206L89.3254 99.272H89.3003V101.435H88.5737V97.9984H89.2113L90.6947 100.16H90.7249V97.9984H91.4482ZM95.1752 99.2016H94.4403C94.4268 99.1065 94.3994 99.022 94.358 98.9482C94.3166 98.8732 94.2635 98.8095 94.1986 98.7569C94.1337 98.7043 94.0588 98.664 93.9738 98.6361C93.8899 98.6081 93.7987 98.5941 93.7002 98.5941C93.5224 98.5941 93.3674 98.6383 93.2354 98.7267C93.1034 98.8139 93.001 98.9415 92.9283 99.1093C92.8556 99.276 92.8193 99.4784 92.8193 99.7167C92.8193 99.9617 92.8556 100.168 92.9283 100.334C93.0022 100.501 93.1051 100.627 93.2371 100.712C93.3691 100.797 93.5218 100.839 93.6952 100.839C93.7925 100.839 93.8826 100.826 93.9654 100.801C94.0493 100.775 94.1237 100.738 94.1885 100.688C94.2534 100.638 94.3071 100.577 94.3496 100.505C94.3933 100.434 94.4235 100.352 94.4403 100.26L95.1752 100.264C95.1562 100.422 95.1087 100.574 95.0326 100.72C94.9577 100.866 94.8564 100.996 94.7289 101.111C94.6025 101.225 94.4514 101.316 94.2758 101.383C94.1013 101.449 93.9038 101.482 93.6835 101.482C93.3769 101.482 93.1029 101.413 92.8612 101.274C92.6207 101.135 92.4305 100.934 92.2907 100.672C92.152 100.409 92.0826 100.09 92.0826 99.7167C92.0826 99.342 92.1531 99.0231 92.294 98.7602C92.435 98.4973 92.6263 98.2971 92.8679 98.1595C93.1096 98.0208 93.3814 97.9514 93.6835 97.9514C93.8826 97.9514 94.0672 97.9794 94.2372 98.0353C94.4084 98.0913 94.56 98.1729 94.692 98.2803C94.824 98.3866 94.9314 98.5169 95.0141 98.6713C95.0981 98.8257 95.1517 99.0024 95.1752 99.2016ZM95.5894 97.9984H96.4033L97.1869 99.4784H97.2205L98.0041 97.9984H98.818L97.5645 100.22V101.435H96.8429V100.22L95.5894 97.9984Z" fill="white"/>
</svg>
