<svg width="21" height="21" viewBox="0 0 21 21" fill="none" xmlns="http://www.w3.org/2000/svg">
<path d="M16.7147 8.89795C17.3777 8.89795 18.0136 9.16134 18.4825 9.63018C18.9513 10.099 19.2147 10.7349 19.2147 11.3979V13.8979C19.2147 14.561 18.9513 15.1969 18.4825 15.6657C18.0136 16.1346 17.3777 16.398 16.7147 16.398V17.2029C16.7147 18.0863 15.6847 18.5688 15.0064 18.003L13.0797 16.398H10.8814C10.2183 16.398 9.58244 16.1346 9.1136 15.6657C8.64476 15.1969 8.38137 14.561 8.38137 13.8979V11.3979C8.38137 10.7349 8.64476 10.099 9.1136 9.63018C9.58244 9.16134 10.2183 8.89795 10.8814 8.89795H16.7147ZM14.2147 3.89795C14.8777 3.89795 15.5136 4.16134 15.9825 4.63018C16.4513 5.09902 16.7147 5.73491 16.7147 6.39795V7.23128H10.048C9.16398 7.23128 8.31613 7.58247 7.69101 8.20759C7.06589 8.83271 6.7147 9.68056 6.7147 10.5646V13.8979C6.7147 14.768 7.04803 15.5613 7.5947 16.1546L6.7147 16.8146C6.02803 17.3296 5.04803 16.8396 5.04803 15.9813V14.7313C4.38499 14.7313 3.74911 14.4679 3.28027 13.9991C2.81143 13.5302 2.54803 12.8943 2.54803 12.2313V6.39795C2.54803 5.73491 2.81143 5.09902 3.28027 4.63018C3.74911 4.16134 4.38499 3.89795 5.04803 3.89795H14.2147Z" fill="#BA00FD"/>
</svg>
