<svg width="21" height="21" viewBox="0 0 21 21" fill="none" xmlns="http://www.w3.org/2000/svg">
<g clip-path="url(#clip0_311_921)">
<path fill-rule="evenodd" clip-rule="evenodd" d="M11.6911 17.6481V4.10645C11.6911 3.49978 11.6895 3.10645 11.6511 2.81811C11.6145 2.54728 11.5553 2.46228 11.5078 2.41478C11.4603 2.36728 11.3753 2.30811 11.1045 2.27145C10.8153 2.23311 10.4228 2.23145 9.81614 2.23145C9.20947 2.23145 8.81614 2.23311 8.52781 2.27145C8.25697 2.30811 8.17197 2.36728 8.12447 2.41478C8.07697 2.46228 8.01781 2.54728 7.98114 2.81811C7.94281 3.10728 7.94114 3.49978 7.94114 4.10645V17.6481H11.6911Z" fill="#22B660"/>
<path opacity="0.7" d="M6.69114 7.85645C6.69114 7.69068 6.62529 7.53171 6.50808 7.4145C6.39087 7.29729 6.2319 7.23145 6.06614 7.23145H3.56614C3.40038 7.23145 3.24141 7.29729 3.1242 7.4145C3.00699 7.53171 2.94114 7.69068 2.94114 7.85645V17.6481H6.69114V7.85645ZM16.6911 12.0231C16.6911 11.8574 16.6253 11.6984 16.5081 11.5812C16.3909 11.464 16.2319 11.3981 16.0661 11.3981H13.5661C13.4004 11.3981 13.2414 11.464 13.1242 11.5812C13.007 11.6984 12.9411 11.8574 12.9411 12.0231V17.6481H16.6911V12.0231Z" fill="#22B660"/>
<path opacity="0.5" d="M1.48281 17.6479C1.31705 17.6479 1.15808 17.7138 1.04087 17.831C0.923659 17.9482 0.857811 18.1072 0.857811 18.2729C0.857811 18.4387 0.923659 18.5977 1.04087 18.7149C1.15808 18.8321 1.31705 18.8979 1.48281 18.8979H18.1495C18.3152 18.8979 18.4742 18.8321 18.5914 18.7149C18.7086 18.5977 18.7745 18.4387 18.7745 18.2729C18.7745 18.1072 18.7086 17.9482 18.5914 17.831C18.4742 17.7138 18.3152 17.6479 18.1495 17.6479H1.48281Z" fill="#22B660"/>
</g>
<defs>
<clipPath id="clip0_311_921">
<rect width="20" height="20" fill="white" transform="translate(0.0244751 0.564697)"/>
</clipPath>
</defs>
</svg>
