<svg width="21" height="21" viewBox="0 0 21 21" fill="none" xmlns="http://www.w3.org/2000/svg">
<path fill-rule="evenodd" clip-rule="evenodd" d="M12.4047 17.6481V4.10645C12.4047 3.49978 12.4031 3.10645 12.3647 2.81811C12.3281 2.54728 12.2689 2.46228 12.2214 2.41478C12.1739 2.36728 12.0889 2.30811 11.8181 2.27145C11.5289 2.23311 11.1364 2.23145 10.5297 2.23145C9.92306 2.23145 9.52972 2.23311 9.24139 2.27145C8.97056 2.30811 8.88556 2.36728 8.83806 2.41478C8.79056 2.46228 8.73139 2.54728 8.69472 2.81811C8.65639 3.10728 8.65472 3.49978 8.65472 4.10645V17.6481H12.4047Z" fill="#F77575"/>
<path opacity="0.7" d="M7.40472 7.85645C7.40472 7.69068 7.33888 7.53171 7.22167 7.4145C7.10446 7.29729 6.94548 7.23145 6.77972 7.23145H4.27972C4.11396 7.23145 3.95499 7.29729 3.83778 7.4145C3.72057 7.53171 3.65472 7.69068 3.65472 7.85645V17.6481H7.40472V7.85645ZM17.4047 12.0231C17.4047 11.8574 17.3389 11.6984 17.2217 11.5812C17.1045 11.464 16.9455 11.3981 16.7797 11.3981H14.2797C14.114 11.3981 13.955 11.464 13.8378 11.5812C13.7206 11.6984 13.6547 11.8574 13.6547 12.0231V17.6481H17.4047V12.0231Z" fill="#F77575"/>
<path opacity="0.5" d="M2.19635 17.6479C2.03059 17.6479 1.87162 17.7138 1.75441 17.831C1.6372 17.9482 1.57135 18.1072 1.57135 18.2729C1.57135 18.4387 1.6372 18.5977 1.75441 18.7149C1.87162 18.8321 2.03059 18.8979 2.19635 18.8979H18.863C19.0288 18.8979 19.1877 18.8321 19.305 18.7149C19.4222 18.5977 19.488 18.4387 19.488 18.2729C19.488 18.1072 19.4222 17.9482 19.305 17.831C19.1877 17.7138 19.0288 17.6479 18.863 17.6479H2.19635Z" fill="#F77575"/>
</svg>
