<svg width="98" height="72" viewBox="0 0 98 72" fill="none" xmlns="http://www.w3.org/2000/svg">
<path d="M37.6041 39.6684C40.7875 43.0673 42.3792 47.3036 42.3792 52.3771C42.3792 58.1968 40.315 62.9885 36.1865 66.7523C35.5565 67.3823 34.9264 67.9129 34.2963 68.344C35.6228 66.0227 36.286 63.4279 36.286 60.5595C36.286 56.5471 35.0922 53.2559 32.7046 50.686C32.3896 50.4373 31.9834 50.0891 31.486 49.6414C30.9886 49.2103 30.2176 48.6632 29.173 48C28.1451 47.3367 26.802 46.5409 25.144 45.6124C23.486 44.6673 21.3969 43.5067 18.8767 42.1305C11.1834 38.1181 6.05181 34.1388 3.48186 30.1927C1.16062 26.8767 0 22.7979 0 17.9565C0 13.2642 1.37617 9.31813 4.1285 6.11813C3.99585 6.61554 3.90466 7.14611 3.85492 7.70984C3.7886 8.27357 3.75544 8.8373 3.75544 9.40103C3.75544 13.4135 5.25595 16.9285 8.25699 19.9461C9.51709 21.1896 11.3078 22.6155 13.629 24.2238C15.9502 25.8155 18.8601 27.5813 22.3585 29.5212C27.1834 32.2238 30.7316 34.3709 33.0031 35.9627C35.2414 37.5709 36.7751 38.8062 37.6041 39.6684ZM0 62.1512C0.945077 63.8424 2.0228 65.4507 3.23316 66.9761C4.4601 68.5181 5.886 69.9191 7.51087 71.1792H0V62.1512ZM96.945 63.1709V5.4715C96.945 4.95751 96.9782 4.18652 97.0445 3.15855C97.1108 2.13057 97.3927 1.07772 97.8901 0H86.0517L67.5481 54.6901L65.5585 49.7409C63.3699 44.2196 61.0072 37.9523 58.4704 30.9388C55.9336 23.9254 53.2228 16.1243 50.3378 7.53574C49.7741 5.96062 49.3513 4.75025 49.0694 3.90466C48.7875 3.05906 48.5803 2.4373 48.4476 2.03938C48.3316 1.62487 48.257 1.343 48.2238 1.19378C48.1906 1.02798 48.1741 0.853884 48.1741 0.671501C48.1741 0.356476 48.2072 0.132642 48.2735 0H32.2818C33.9067 1.2601 35.3326 2.65285 36.5596 4.17823C37.7865 5.7202 38.8725 7.30362 39.8176 8.92849C40.315 10.4373 40.8456 11.8964 41.4093 13.3057C41.973 14.715 42.5036 16.1078 43.001 17.4839C44.7585 21.8114 46.2673 25.6166 47.5274 28.8995C48.7709 32.1989 49.8321 34.943 50.7108 37.1316C52.5844 42.2051 54.2922 46.7481 55.8342 50.7606C57.3761 54.773 58.7108 58.3129 59.8383 61.3803C60.0207 61.8942 60.286 62.5989 60.6341 63.4942C60.9823 64.4062 61.3388 65.3678 61.7036 66.3792C62.0849 67.374 62.4331 68.3108 62.7481 69.1896C63.0632 70.0683 63.3119 70.7232 63.4943 71.1543C64.373 68.5844 65.2186 66.1139 66.031 63.7429C66.7025 61.803 79.859 22.3337 85.1564 6.46631C85.43 5.59585 86.6984 5.81968 86.7232 6.71502C86.7232 6.7316 86.7232 6.74818 86.7232 6.76476V64.0165C86.7067 66.0227 86.6735 67.573 86.6238 68.6673C86.5574 69.7616 86.458 70.5906 86.3253 71.1543H97.517C97.3346 70.3419 97.1937 69.3139 97.0942 68.0704C96.9947 66.8103 96.945 65.1771 96.945 63.1709Z" fill="black"/>
</svg>
